<?xml version="1.0" encoding="UTF-8"?><svg id="a" xmlns="http://www.w3.org/2000/svg" viewBox="0 0 544.37 348.59"><defs><style>.b{fill:#f4b17c;}.c{fill:#fb4322;}.d{fill:#f3575a;}.e{fill:#f6be22;}.f{fill:#fdfefe;}.g{fill:#b4b06d;}.h{fill:#327bb0;}.i{fill:#bcbab3;}.j{fill:#b1ae9b;}.k{fill:#bfbda8;}.l{fill:#c2f7fd;}.m{fill:#c2f6fa;}.n{fill:#c2f5fa;}.o{fill:#cac9c1;}.p{fill:#adaa82;}.q{fill:#c69518;}.r{fill:#c8994b;}.s{fill:#117c8d;}.t{fill:#252020;}.u{fill:#1690ac;}.v{fill:#1bbdee;}.w{fill:#443f33;}.x{fill:#3e6e61;}.y{fill:#a3a29b;}.a`{fill:#87cdd0;}.aa{fill:#2e4960;}.ab{fill:#601224;}.ac{fill:#60a4b5;}.ad{fill:#818076;}.ae{fill:#7d1a2f;}</style></defs><path class="l" d="M50.62,99.48c1.98-.63,3.95-1.27,5.93-1.9,2.01,0,4.01,0,6.29,0l.29,2.68h5.86l-1.73-6.25c3.37-.45,6.3-.72,9.17-1.26,1.77-.33,3.51-.98,5.19-1.66,1.45-.59,2.79-2.07,4.19-2.09,13.44-.16,26.88-.14,40.33-.08,8.71,.04,17.41,.32,26.12,.31,17.48-.04,34.96-.27,52.43-.23,2.27,0,4.54,1.18,7.24,1.94-.74-2.53-1.21-4.18-1.69-5.82,1.3-.02,2.6-.03,3.9-.05,1.09,.55,2.41,1.77,3.2,1.49,1.08-.38,2.27-1.81,2.5-2.97,.85-4.15-2.83-8.96-6.83-10.4-1.84-.66-3.24-2.63-4.74-4.1-.69-.68-1.15-1.58-1.73-2.4l-4.64,5.57c-.5-2.85-.67-4.36-1.03-5.81-.49-1.95-1.13-3.86-1.7-5.79-3.43-3.91-3.79-3.78-6.58,1.3-.46,.84-1.89,1.15-2.87,1.7l-1.27-1.47c1.83-2.25,3.65-4.49,5.46-6.72-3.07-2.54-8.29-2.26-10.93,.6-.71,.77-3.01,1.4-3.29,1.05-5.85-7.23-15.48,.69-21.49-5.91,.28,1.35,1.06,1.97,1.33,2.76,.35,1.04,.28,2.22,.4,3.34-1.3-.17-3.54,0-3.76-.58-1.53-4.02-4.59-2.64-7.54-2.68,.21,1.31,.39,2.37,.37,2.28-3.85,.72-7.4,.85-10.47,2.12-2.34,.97-4.08,3.39-6.09,5.17h0c.31-1.24,.74-2.47,.93-3.73,.98-6.52,5.71-9.87,12.68-8.09v-5.7h0c1.62,0,3.24,.09,4.85,0,5.14-.3,9.85-3.73,10.72-7.75,.62-.01,1.25-.03,1.87-.04,4.05,1.1,6.3-2.31,9.41-3.59,6.38-2.64,13.06-4.54,19.83-6.81v-5.02c1.29-.04,2.57-.08,3.86-.12,7.4-.64,14.8-1.86,22.19-1.8,10.14,.09,20.27,1.14,30.41,1.78,1.28,.03,2.55,.07,3.83,.1,.65,.62,1.3,1.24,1.95,1.87h0c.67,.64,1.34,1.28,2.01,1.92,.62,.02,1.25,.04,1.87,.06-.95,1.1-1.89,2.2-2.84,3.31-1.96,3.77-.65,5.88,3.82,4.73-.35,2.68-.67,5.09-.98,7.49-4.88-.59-3.96,2.9-3.75,5.61,.06,.72,1.29,1.36,1.98,2.03,.57-.63,1.55-1.21,1.64-1.91,.24-1.88,.11-3.82,.13-5.73,2.71-.05,5.42-.09,8.14-.14l.31-.09,.31,.08c-.53,.71-.91,1.71-1.61,2.08-3.9,2.05-7.11,4.3-2.64,10.43-3.3-1.1-5.01-1.67-7.36-2.45-.35,4.6-.84,9.06-.99,13.52-.09,2.72-.41,4.8-3.82,4.87-.76,.02-1.5,.95-2.25,1.45-.26,.12-.52,.11-.78-.01-2.61-.73-5.23-1.46-7.84-2.19-.13,2.47-.32,4.93-.36,7.4,0,.59,.85,1.3,.7,1.75-.68,1.99-1.92,5.67-2.35,5.59-4.75-.92-8.97,6.04-14.35,.71-.1,1.7,.26,2.8,.78,3.83,.98,1.93,2.04,3.82,3.07,5.73h-.03c-3.2-.53-4.39,.89-3.86,3.98l.15,1.88-.21-.06c-3.14-.45-4.4,.88-3.8,3.99l.02-.03c-4.23,1.65-1.92,5.27-1.73,7.73,.11,1.35,3.19,2.47,4.93,3.69,.83,.39,1.66,.77,2.49,1.16-2.71,3.67-5.64,4.19-9.78,1.77-2.03-1.18-5.23-2.7-7.72,.17-1.6,.01-3.2,.02-4.8,.04-4.79-1.86-3.88,2.85-4.72,4.65-1.55,3.35-2.56,5.05-6.6,2.73-4.87-2.79-8.78-.25-9.09,5.25h0c-.65,.57-1.83,1.13-1.85,1.72-.16,4.45-.09,8.91-.09,13.09,7.5-.43,14.34-1.21,21.16-1.1,6.29,.1,12.55,1.3,18.84,1.74,4.01,.28,8.08-.19,12.09,.13,2.75,.22,5.43,1.21,8.14,1.86h0c-3.36,6.1,5.04,6.72,5.27,11.76h-5.54c-2.71,6.69,.39,11.87,2.21,17.3-6.5,3.09-13.1,6-19.48,9.31-10.81,5.61-21.48,11.5-32.25,17.21-2.23,1.18-4.63,2.04-6.95,3.05-7.76-5.49-11.6-13.21-13.6-22.33,4.24,.92,7.75,1.68,11.37,2.47-5.5-10.98-10.7-21.37-15.75-31.45-4.92,9.71-10.05,19.83-15.51,30.61,4.03-.91,7.63-1.73,11.79-2.67-2.63,9.13-6.07,17.07-13.89,22.36-1.82-.32-3.64-.87-5.47-.91-6.27-.15-12.53-.14-18.8-.15-5.24-.01-10.49,.02-15.73,.03-2.34-2.75-5.02-5.28-6.93-8.3-3.04-4.83-5.55-9.98-8.31-15.06-5.21,8.65-10.22,16.97-15.58,25.87,3.97-.75,7.6-1.43,12.16-2.29-1.42,2.27-2.47,3.93-3.51,5.59-9.98-.05-18.66-4.55-27.66-8.03-8.29-3.2-16.84-6.94-25.74-3.73-10.12,3.64-19.84,8.41-29.68,12.8-1.07,.48-1.78,1.77-2.65,2.69-2.46-4.59-.58-8.85,2.44-11.75,7.33-7.03,15.09-13.65,23.06-19.95,4.88-3.85,10.47-6.8,16.48-10.64-3.47-1.89-7.09-3.25-9.94-5.58-2.89-2.36-7-4.61-5.19-10.4,1.78,0,3.67,0,5.55,0,36.78,0,73.57,.04,110.35-.08,1.98,0,5.93,1.77,5.64-2.04-.16-2.01-3.41-4.64-5.77-5.38-2.41-.76-5.44,.45-7.84,.75-1.82-2.04-3.46-5.46-5.85-6.12-2.44-.66-5.62,1.4-9.06,2.44-.73-5.58-2.3-11.15-8.99-12.93-3.37-3.51-13.09-2.62-16.59,1.34-3.68-.99-7.24-1.96-10.85-2.93-.25,1.85-.5,3.68-.75,5.51h0c-1.54-.81-3.92-1.25-4.47-2.49-1.65-3.74-4.25-3.8-7.73-2.96v3.14c-8.51-3.56-12.62-2.16-13.08,4.26h0c-1.96,.63-3.91,1.28-5.87,1.92h0c-.16-3.1,.08-6.6-4.89-4.83h0c.96-1.47,1.67-3.23,2.95-4.33,2.47-2.14,2.87-9.98,0-10.96-3.38-1.15-2.45-3.04-1.95-5.18,1.29-.76,3.64-1.5,3.65-2.28,.02-2.04-.97-4.09-1.56-6.14-1.63,.54-3.26,1.08-3.93,1.31l1.84,7.11-4.85,2.88c-3.17-3.98-1.49-10.91,4.51-14.23,2.39-1.32,4.32-2.35,2.14-5.3ZM207.28,41.28l.46,.18-.38-.26-.47-.19c.13,.09,.26,.18,.39,.27Zm-34.97,72.9c5.18-.15,.84-3.37,2.66-5.68-4.08,2.65-8.78-2.64-11.34,3.36,2.13,.5,3.95,.93,5.76,1.35l.21,2.09c1.06-.44,1.88-.78,2.71-1.12Zm22.36-70.99c.18,3.81,3.05,1.57,4.58,1.81,1.53,.24,3.24-.55,4.82-1.04,.18-.06,.06-1.71,0-1.72-1.62-.13-3.26-.13-4.89-.19-.3-.01-.6-.16-1.17-.33v-2.82l-5.66,1.45c.98,1.19,1.65,2.01,2.32,2.83h0Zm-49.83,56.28l.75,.65-.65-.75c.37-5.23,4.83-5.22,8.53-6.18l-.52-1.55c-2.82,.77-5.65,1.55-8.47,2.32-1.22,.47-2.44,.94-3.65,1.41l-6.45,1.64-1.09-1.72-.64,2.01,.28,1.02c-.8,1.11-1.61,2.23-2.41,3.34l1.2,1.01,2.6-2.91c3.5-.09,7.01-.19,10.52-.28Zm-56.43-6.25v.97h37.51v-.97h-37.51ZM216.49,48.68l.21,1.47,13.61,1.65c.52-2.08,.89-3.55,1.25-4.96-5.33,.65-10.19,1.24-15.06,1.83ZM73.32,97.95l.08,1.64c2.53,.32,5.07,.89,7.59,.84,.95-.02,1.86-1.49,2.79-2.3-.99-1.07-2.19-3.16-2.94-3.01-2.6,.53-5.03,1.83-7.53,2.84Zm138.92,1.08l-2.53,1.33,2.5,6.8c1.24-1.29,3.56-2.67,3.46-3.84-.14-1.52-2.2-2.87-3.43-4.29Zm-57.94,.07c-1.08-.65-1.69-1.3-2.28-1.28-.61,.02-1.21,.68-1.81,1.05,.6,.53,1.14,1.33,1.83,1.51,.48,.12,1.18-.63,2.26-1.28Zm22.13,12.59l1.62,.26c.13-.87,.37-1.74,.32-2.6-.01-.2-1.02-.34-1.58-.5l-.36,2.84Zm.21-73.83l-.07-1.3-2.83,.45,.13,.85h2.78Z"/><path class="n" d="M394.5,51.86c4.76,3.66,9.81,7.02,14.21,11.08,4.49,4.14,4.8,10.31,1.37,13.78-.65,.66-1.65,.98-2.49,1.46-.64,.96-1.27,1.92-1.91,2.89-.31,.04-.62,.06-.93,.05-2.45,1.66-4.89,3.31-7.34,4.97l.59,1.49,6.69-2.52c2.9-.66,5.82-1.91,8.71-1.86,7.37,.13,14.39,1.04,21.19,5.07,10.83,6.41,19.63,14.64,24.68,25.9,2.86,6.37,3.32,13.91,4.25,21,.32,2.42,.29,3.83,3.05,4.32,6.6,1.17,13.36,1.99,19.64,4.16,3.69,1.28,6.85,4.6,9.78,7.47,3.57,3.5,3.73,8.04,2.32,12.69,1.75,2.38,6.78,2.2,5.4,6.92-12.92,.25-25.84,.51-38.76,.76-5.13-9.81-10.26-19.63-15.11-28.91-4.83,9.58-9.93,19.71-15.29,30.35,3.78-.8,7.3-1.54,11.3-2.39-.46,2.14-.84,3.98-1.23,5.82-4.69,2.28-9.38,4.55-14.07,6.83-2.06-2.62-4.06-5.27-6.18-7.84-4.86-5.88-9.02-12.07-9.81-19.73,3.85,.91,7.46,1.76,11.26,2.65-5.57-11.11-10.75-21.46-15.74-31.44-5.01,9.88-10.1,19.91-15.45,30.47,3.67-.78,7.2-1.52,11.67-2.47-1.14,3.3-1.48,6.57-3.18,8.81-5.62,7.42-11.74,14.46-17.66,21.65-.03-1.44-.07-2.87-.1-4.31,.28-.89,.71-1.76,.81-2.66,.56-5.07-2.25-10.98,3.95-14.65,.61-.36,.37-2.42,.28-3.67-.26-3.69-.41-7.4-1.04-11.03-.43-2.48-1.47-4.88-2.44-7.24-.7-1.71-1.73-3.28-2.61-4.92,4.98-3.7,9.72-7.6,11.95-13.7,1.22-.91,3.17-1.61,3.53-2.79,1.58-5.1,2.69-10.34,3.98-15.54,1.9-4.42,.99-7.11-3-8.83-2.78-.36-5.56-.71-8.31-1.07-.78-2.08-1.56-4.15-2.34-6.23,.82-4.42,2.92-9.07,2.19-13.21-1.23-6.98-4.26-13.64-6.54-20.44,2.91-1.05,5.83-2.11,8.74-3.16Z"/><path class="x" d="M86.85,211.57c1.04-1.66,2.09-3.33,3.51-5.59-4.56,.86-8.2,1.54-12.16,2.29,5.36-8.9,10.37-17.21,15.58-25.87,2.76,5.07,5.28,10.23,8.31,15.06,1.9,3.02,4.59,5.55,6.93,8.3,.48,1.81,.47,3.26-2.09,2.79-2.88-.54-5.76-1.08-9.65-1.82,1.68,3.38,2.45,6.29,4.24,8.3,5.12,5.75,10.66,11.12,15.99,16.68,.83,.87,1.45,1.95,2.16,2.93-1.12,.72-2.18,1.91-3.38,2.08-3.89,.54-7.83,.7-11.86,1.02,0,.33-.11,.83,.03,1.25,.2,.6,.59,1.14,.9,1.71,.85,1.69,1.32,3.81,2.63,5,4.62,4.22,9.54,8.11,14.32,12.16,2.96,2.51,5.87,5.07,9.11,7.87-7.32,4.69-14.3,2.96-21.57,2.64,.41,7.72,4.71,12.65,10.07,16.98-1.13,2.22-2.02,4.63-3.45,6.64-7.32,10.29-14.61,20.59-18.35,32.88-13.05-.43-26.1-.86-39.15-1.29,.85-1.27,1.67-2.56,2.55-3.8,3.07-4.34,6.16-8.67,10.03-14.11-10.7,.16-19.71,.57-26.51-6.71,1.93-1.29,3.86-2.57,5.79-3.86,12.11-5.76,23.58-12.16,27.28-26.62-7-.57-13.34-1.09-19.68-1.6-.48-.15-.96-.29-1.44-.44,.56-1.36,.77-3.12,1.76-4,2.88-2.55,6.07-4.75,9.14-7.08,5.74-4.34,12.1-8.12,14.31-15.68l1.39-2.6c-5.64-1.45-11.49,1.48-16.8-3.23,3.57-3.12,7.12-5.62,9.9-8.8,3.7-4.22,6.79-8.97,10.15-13.5Z"/><path class="y" d="M258.93,338.06c-7.61-.25-15.8,1.2-22.71-1.14-10.47-3.54-20.97-5.67-31.75-5.5-19.64,.31-39-2.03-58.37-4.65,.93-1.34,1.57-3.22,2.85-3.93,7.82-4.29,15.6-8.75,23.75-12.32,10.63-4.66,22.4-7.18,29.76-17.39,4.89-2.08,9.77-1.85,15.05-1.27,8.59,.94,17.31,1.21,25.23-4.03,4.08-2.7,8.82-3.05,13.9-1.67,9.88,2.7,19.93,4.76,29.92,7.05,6.43,1.47,8.27,3.74,8.26,10.36,0,2.51,0,5.02,0,7.52,.58,.19,1.16,.37,1.75,.56,.85-1.55,1.98-3.01,2.5-4.66,1.74-5.61,3.73-6.25,8.75-2.84,1.66,1.13,3.66,1.77,5.5,2.63-1.31,3.87-2.62,7.74-3.93,11.62-3.43,.3-4.19,2.49-3.85,5.45,.34,2.92-.44,4.81-3.89,4.3h0c-.69-1.67-1.03-3.66-2.18-4.92-1.11-1.23-3.41-2.73-4.54-2.32-3.56,1.28-4.11,10.19-1.1,13.11l-1.3,3.68c-.91-.79-1.74-1.73-2.77-2.32-1.12-.64-2.44-.94-3.67-1.4-.07-5.46-4.38-9.51-9.41-7.49-4.48,1.79-7.34,.48-10.69-1.71-.84-.55-2.16-.35-3.26-.5h0c-1.8-4.35-5.72-5.16-9.73-5.83l-1.89-.07c-.13-1.85-.26-3.7-.35-5.13-2.84-.64-5.06-.9-7.08-1.67-1.19-.45-2.08-1.71-3.1-2.61-.39,1.45-.97,2.89-1.11,4.36-.15,1.53,.13,3.11,.22,4.66l1.29-.83c1.62,1.53,3.17,3.14,4.88,4.56,.55,.45,1.5,.41,2.27,.6,3.6,5.24,7.2,10.47,10.8,15.71Z"/><path class="k" d="M464.95,171.51c12.92-.25,25.84-.51,38.76-.76,2.03,9.23,3.77,18.53,6.24,27.64,1.1,4.06,3.69,7.71,5.6,11.54-.31,.51-.53,1.14-.95,1.52-6.61,5.96-14.96,7.34-23.28,8.78-.35-.99-.7-1.98-1.04-2.97-.17-1.12-.33-2.24-.5-3.37-.54-.07-1.09-.15-1.63-.22-.57,2.17-1.14,4.35-1.71,6.52-.04,.38-.08,.77-.13,1.15-4.79,1.87-9.68,3.52-14.35,5.65-10.63,4.84-17.04,3.89-25.4-4.18-5.3-5.12-11.21-8.95-18.59-10.66-8.38-1.94-11.66-6.68-11.66-15.29,0-1.29,.04-2.58,.06-3.88-.04-1.37-.07-2.75-.11-4.12,4.76-1.88,9.52-3.77,14.28-5.65,4.69-2.28,9.38-4.55,14.07-6.83,6.78-1.62,13.56-3.25,20.34-4.87Z"/><path class="k" d="M98.13,324.87c3.74-12.29,11.02-22.58,18.35-32.88,1.43-2.01,2.31-4.42,3.45-6.64,3.49-3.04,7.39-5.73,10.4-9.2,5.74-6.62,11.91-12.41,20.54-14.96,2.22-.39,4.51-.54,6.65-1.2,14.62-4.53,29.23-8.72,44.44-2.45,.15,.06,.32,.05,.48,.07,.3,.7,.47,1.93,.92,2.04,6.06,1.55,12.15,2.94,18.23,4.37,1.08,.59,2.09,1.51,3.24,1.72,7.81,1.42,15.64,2.7,23.46,4.02,3.59,.7,7.19,1.4,10.78,2.09-.53,.94-1.07,1.88-1.6,2.83-4.45-.61-8.94-1.93-13.33-1.66-7.12,.44-14.67,.68-21.15,3.24-11.73,4.64-22.67,6.97-34.69,.85-9.73-4.95-14.78-3.24-22.06,5.04-2.77,3.15-5.58,6.26-8.37,9.39-8.16,9.14-16.4,18.22-24.41,27.49-1.7,1.97-2.61,4.63-3.88,6.97-10.48-.38-20.96-.76-31.43-1.13Z"/><path class="y" d="M514.93,303.02c-5.34,7.87-12.44,13.73-20.75,18.22,2.05-5.79,3.95-11.46,4.16-17.86,.19-5.9,7.26-10.38,4.55-18.98-4.03,6.22-7.36,11.36-10.69,16.5-1.94,1.32-3.88,2.63-5.82,3.95l-.03-.03c-.64-.65-1.28-1.29-1.92-1.94h0l-3.11-6.12-2.45,.23c-.73,2.66-1.95,5.3-2.07,7.99-.14,3-1.17,4.08-4,3.7-.02-.63-.05-1.26-.07-1.89-4.63-8.1-7.12-9.26-10.28-5.92,.25,4.91,.47,9.05,.62,12.06-2.66,1.62-4.25,2.58-5.84,3.55-2.23,1.84-4.42,3.74-6.74,5.45-.47,.35-1.89,.24-2.16-.15-.46-.65-.71-1.86-.41-2.56,1-2.29,2.28-4.45,3.46-6.67,1.29-1.87,2.66-3.69,3.75-5.67,.13-.24-1.59-2.05-1.9-1.91-1.97,.89-3.78,2.12-5.63,3.26-.09,.06-.06,.3-.09,.46-3.56,1.3-7.12,2.6-10.68,3.9,.32-3.23,.65-6.46,.97-9.69,1.49-5.04,2.96-10.09,4.52-15.11,.09-.28,.84-.35,1.29-.52,1.94-3.37,4.15-6.62,5.69-10.17,.57-1.3-.43-3.29-.72-4.96-1.59,.77-3.56,1.2-4.68,2.41-1.16,1.26-1.5,3.28-2.2,4.97,.58,3.99-2.01,4.08-4.81,3.91-1.51-3.38-3.48-6.65-4.39-10.18-.94-3.63-2.06-7.87,1.54-10.86,9.27-7.69,18.7-14.75,31.9-14.22,4.17,.17,8.45-2.35,12.67-3.65,3.57,3.89,7.15,7.78,10.72,11.66,1.49,10.34,5.97,18.79,15.09,24.35,1.31-.99,2.43-1.83,3.55-2.67-.31,2.13-1.63,3.5-2.01,5.1-.3,1.27,.55,2.82,.9,4.24,1.71,4.88,3.33,9.79,5.22,14.59,.27,.68,1.89,.83,2.89,1.22Z"/><path class="ac" d="M86.85,211.57c-3.35,4.52-6.45,9.27-10.15,13.5-2.78,3.18-6.33,5.68-9.9,8.8,5.31,4.71,11.16,1.79,16.8,3.23-.49,.93-.94,1.76-1.39,2.6-15.01,.65-30.03,1.29-45.04,1.94-7.37-2.35-14.16-5.42-17.78-12.99-.45-.94-1.97-1.47-3.09-1.98-5.9-2.68-11.96-5.11-15.17-11.37,.87-.92,1.58-2.21,2.65-2.69,9.84-4.4,19.56-9.17,29.68-12.8,8.9-3.2,17.45,.53,25.74,3.73,8.99,3.48,17.67,7.98,27.66,8.03Z"/><path class="g" d="M472.72,306.8c.02,.63,.05,1.26,.07,1.89,1.38,.62,2.76,1.25,4.15,1.87,.88-2.34,1.75-4.68,2.87-7.67h4.62c.64,.65,1.28,1.3,1.92,1.94l.03,.03c.86,1.19,1.71,2.38,2.57,3.57l1.67-.04c.53-2.49,1.05-4.98,1.58-7.47,3.33-5.14,6.66-10.28,10.69-16.5,2.72,8.6-4.35,13.08-4.55,18.98-.21,6.4-2.1,12.07-4.16,17.86-11.23,7.33-23.77,10.48-36.95,11.74-11.09,1.06-21.88-.09-32.51-3.44-1.82-.57-4.23-.4-6.03,.3-6.38,2.47-12.62,5.32-18.91,8.02-3.93,.31-6.63-.87-6.83-5.39-.04-.87-.66-1.74-1.1-2.57-2.59-4.89-5.3-9.71-7.73-14.67-.5-1.03,.06-2.58,.12-3.89,1.1,.22,2.36,.18,3.26,.73,2.7,1.65,5.12,3.81,7.94,5.2,1.72,.85,4.08,1.16,5.91,.71,.79-.2,1.05-2.91,1.36-4.52,.21-1.09-.18-2.33,.15-3.36,.28-.86,1.22-1.51,1.86-2.25,.63,.76,1.37,1.45,1.86,2.28,1.03,1.75,1.94,3.58,2.89,5.38,.51,1.86,1.02,3.73,1.53,5.59l1.32,.03c.69-2.21,1.38-4.42,2.06-6.62,1.32,.75,2.62,1.54,3.96,2.23,.96,.5,2.8,1.34,2.85,1.25,1.72-3.04,3.28-6.18,4.86-9.31-.6-5.62,5.36-8.43,5.83-13.59l4.95-7.85c.12-.08,.35-.2,.34-.24-.07-.23-.2-.43-.31-.65l-.03-2.93c2.8,.17,5.39,.08,4.81-3.91,.64,2.58,1.27,5.16,1.91,7.74-.45,.17-1.2,.24-1.29,.52-1.55,5.02-3.03,10.07-4.52,15.11-3.87,3.67-3.55,8.32-3.71,12.86,.42,.14,.84,.28,1.27,.42,.49-1.19,.98-2.39,1.47-3.58,3.56-1.3,7.12-2.6,10.68-3.9,2.96-.39,4.35,.8,3.87,3.86-1.17,2.21-2.46,4.38-3.46,6.67-.3,.7-.05,1.91,.41,2.56,.28,.39,1.69,.5,2.16,.15,2.33-1.71,4.51-3.61,6.74-5.45,.64,.02,1.28,0,1.91,.06,2.07,.23,3.56,3.28,6.3,.59,2.65-2.6,.1-4.17-.24-6.26-.28-1.78,.28-3.7,.48-5.56,1.4,.4,2.79,.86,4.21,1.18,.92,.21,1.89,.21,2.84,.31Z"/><path class="j" d="M129.56,326c1.27-2.34,2.18-5,3.88-6.97,8.02-9.27,16.25-18.35,24.41-27.49,2.79-3.13,5.61-6.24,8.37-9.39,7.28-8.28,12.33-10,22.06-5.04,12.02,6.12,22.96,3.79,34.69-.85,6.48-2.57,14.03-2.8,21.15-3.24,4.39-.27,8.88,1.05,13.32,1.66,1.45,.28,2.9,.56,4.36,.84-1.65,.36-3.3,.97-4.96,1.03-6.08,.21-12.02-.11-17.97,2.49-6.91,3.02-13.97,5.64-22,5.7-5.6,.05-12.07,1.43-14.41,8.4-7.36,10.21-19.12,12.73-29.76,17.39-8.15,3.57-15.93,8.03-23.75,12.32-1.28,.7-1.92,2.59-2.85,3.93-5.51-.26-11.02-.51-16.54-.77Z"/><path class="j" d="M535.14,221.06c.55,.65,1.36,1.22,1.6,1.97,1.82,5.73,3.19,11.62,5.35,17.21,1.98,5.12,3.64,9.99,.62,15.17-.27,.47-1,.67-1.52,.99-3.2-.09-6.52-.74-9.59-.13-5.15,1.02-10.09,3.11-15.24,4.2-2.31,.49-5.29,.35-7.28-.74-5.15-2.83-9.92-6.35-14.84-9.59,.63-3.17,1.26-6.34,1.9-9.51,6-3.18,8.46-10.6,15.3-12.83,.26-.09,.19-1.19,.28-1.82,7.81-1.64,15.62-3.29,23.43-4.93Z"/><path class="g" d="M286.09,333.98c1.23,.45,2.55,.76,3.67,1.4,1.03,.59,1.85,1.53,2.77,2.32,.43-1.23,.87-2.45,1.3-3.68,.13-7.75,1.84-9.03,7.81-5.87h0c1.64,1.01,3.28,2.01,4.98,3.05,1.06-4.91,1.91-8.86,2.76-12.81,1.31-3.87,2.62-7.74,3.93-11.62,1.36-2.63,2.73-5.26,4.09-7.89,.92-.63,1.85-1.27,2.78-1.9l.95-1.88c3.06-.48,4.23,.93,3.87,3.87,0,.29,0,.58,0,.86-.95,1.31-1.9,2.62-2.86,3.93-.67,1.98-1.34,3.97-2.02,5.95-.96,1.73-2.13,3.38-2.84,5.2-.82,2.14-.8,4.7-1.92,6.62-2.18,3.74-2,6.87,1.37,10.24,1.49-1.92,2.91-3.76,4.33-5.6,5.94-3.13,7.2-2.81,7.81,1.97-.32,.65-.65,1.3-.97,1.95-2.12,1.52-4.69,2.68-6.26,4.64-1.91,2.39-.29,4.88,2.88,5.05,2.4,.13,5.04-.42,7.16,.4,3.26,1.26,5.09,0,6.86-2.3,.64-.03,1.28-.05,1.91-.08,2.64,.02,5.27,.04,7.91,.07l-.11,1-.85,.92-.06,.08c-.63,.64-1.26,1.29-1.89,1.93h0c-3.77,4.49-8.9,4.14-13.95,3.81-8.9-.57-17.78-1.58-26.68-1.76-3.59-.08-7.22,1.52-10.84,2.35-1.32-.12-2.65-.23-3.97-.35-1.96-2.69-13.6-6.28-17.41-5.36-4.56-.82-9.12-1.65-13.67-2.47-3.6-5.24-7.2-10.47-10.8-15.71-1.97-3.55,.01-4.12,2.98-3.96,.63,.02,1.26,.04,1.89,.07,.66,6.25,5.56,5.43,9.73,5.82h0c1.65,1.87,3,4.21,5.03,5.47,2.4,1.49,5.13,6.96,8.29,.53,.17-.35,1.64-.41,2.28-.12,2.63,1.17,5.18,2.54,7.75,3.83Z"/><path class="ad" d="M340.46,337.83c-.64,.03-1.28,.05-1.91,.08-.59-1.35-1.19-2.7-1.78-4.04-1.35-2.55-2.7-5.1-4.05-7.65-.69-2.61-1.39-5.22-2.08-7.83-1.79-5.48-2.65-11.49-8.5-14.6,.95-1.31,1.9-2.62,2.86-3.93,3.82,1.62,7.55,3.53,11.48,4.8,6.17,1.99,9.9,5.76,11.9,12.06,2.31,7.3,8.76,10.46,15.56,12.33,8.32,2.28,16.81,3.98,25.22,5.93,.97,1.95,1.95,3.9,2.92,5.85-15.94,6.08-32.46,8.46-49.47,7.63,.95-2.2,1.9-4.4,2.85-6.61h0c.63-.64,1.26-1.29,1.89-1.93l.06-.08c.28-.31,.57-.61,.85-.92,.04-.33,.08-.67,.11-1,.57-.73,1.13-1.46,1.7-2.2l-.73-1.21c-2.96,1.11-5.92,2.23-8.88,3.34Z"/><path class="a`" d="M37.17,241.64c15.01-.65,30.02-1.29,45.04-1.94-2.21,7.56-8.57,11.34-14.31,15.68-3.08,2.33-6.26,4.53-9.14,7.08-.99,.88-1.2,2.64-1.76,4-7.09,1.01-14.02,.77-20.69-2.3-5.68-2.62-7.22-6.43-4.36-11.97,1.09-2.1,2.84-3.86,3.95-5.96,.73-1.37,.86-3.05,1.26-4.59Z"/><path class="ad" d="M494.24,250.14c4.92,3.24,9.69,6.76,14.84,9.59,1.99,1.09,4.98,1.23,7.28,.74,5.15-1.09,10.09-3.18,15.24-4.2,3.07-.61,6.38,.04,9.59,.13-3.86,5.35-7.73,10.7-11.59,16.05-.37-.8-.75-1.59-1.23-2.6-1.01,.93-1.63,1.68-2.41,2.2-1.69,1.12-3.47,2.13-5.21,3.18-.77-1.8-1.72-3.55-2.26-5.42-.58-1.98-.79-4.08-1.15-6.12-.58,.05-1.16,.09-1.73,.14v24.27c-2.11-.29-4.01-.55-5.9-.81-.7-.02-1.4-.04-2.09-.06-.26-.01-.52-.01-.79,0-.34-1.42-1.2-2.97-.9-4.24,.38-1.6,1.7-2.98,2.01-5.1-1.12,.84-2.23,1.68-3.55,2.67-9.11-5.55-13.6-14-15.09-24.35,1.64-2.02,3.29-4.04,4.94-6.06Z"/><path class="m" d="M132.44,63.6c2.01-1.78,3.75-4.2,6.09-5.17,3.07-1.27,6.62-1.41,10.47-2.12,.02,.09-.16-.97-.37-2.28,2.95,.04,6.01-1.34,7.54,2.68,.22,.58,2.46,.4,3.76,.58-.11-1.12-.05-2.3-.4-3.34-.26-.79-1.05-1.41-1.33-2.76,6,6.6,15.64-1.32,21.49,5.91,.28,.35,2.58-.28,3.29-1.05,2.64-2.86,7.85-3.15,10.93-.6-1.81,2.23-3.64,4.47-5.46,6.72l1.27,1.47c.98-.55,2.41-.86,2.87-1.7,2.79-5.07,3.14-5.21,6.58-1.3,.57,1.93,1.21,3.84,1.7,5.79,.36,1.46,.54,2.96,1.03,5.81l4.64-5.57c.58,.82,1.04,1.73,1.73,2.4,1.5,1.47,2.9,3.44,4.74,4.1,4.01,1.44,7.68,6.25,6.83,10.4-.24,1.16-1.42,2.58-2.5,2.97-.79,.28-2.12-.94-3.2-1.49,.1-10.68-3.39-12.95-14.27-10.39-2.74-2.72-4.7-6.27-7.27-6.79-3-.62-6.53,1.4-8.5,1.93-3.17-4.59-5.32-9.09-8.71-12.26-4.42-4.13-12.42-.6-13.88,5.35-.46,1.89-1.81,3.56-2.8,5.43-3.52-2.5-6.48-4.86-9.69-6.82-5.01-3.05-8-2.34-11.46,2.27-4.66,6.21-4.58,6.14-9.68,.7-1.93-2.05-4.33-3.66-7.27-6.09,8.27-4.97,16.26-9.76,25.44-12.28,0,1.83,0,3.67,0,5.7-6.97-1.78-11.7,1.57-12.68,8.09-.19,1.26-.61,2.49-.93,3.73l-1.48,1.17,.31,.31,1.17-1.48Z"/><path class="a`" d="M45.04,298.97c6.8,7.28,15.81,6.86,26.51,6.71-3.87,5.44-6.96,9.76-10.03,14.11-.88,1.25-1.7,2.53-2.55,3.8-11.46-.1-22.93-.15-34.39-.34-1.27-.02-3.56-.8-3.59-1.33-.08-1.46,.34-3.45,1.35-4.4,5.27-4.98,10.71-9.78,16.25-14.46,1.92-1.63,4.29-2.74,6.45-4.08Z"/><path class="m" d="M210.23,85.1c.48,1.65,.96,3.29,1.69,5.82-2.7-.76-4.97-1.93-7.24-1.94-17.48-.04-34.96,.19-52.43,.23-8.71,.02-17.41-.27-26.12-.31-13.44-.06-26.89-.08-40.33,.08-1.4,.02-2.74,1.49-4.19,2.09-1.68,.69-3.41,1.33-5.19,1.66-2.88,.54-5.81,.81-9.17,1.26l1.73,6.25h-5.86l-.29-2.68c-2.27,0-4.28,0-6.29,0,.77-.91,1.36-2.14,2.34-2.68,5.13-2.84,10.33-5.55,15.56-8.19,1.49-.75,3.17-1.6,4.77-1.6,43.67-.06,87.34-.02,131.01,0Z"/><path class="h" d="M338.65,19.03c-2.21-1.32-4.59-2.43-6.61-4.01-3.54-2.75-2.96-6.91,1.4-7.33,6.42-.61,11.62-3.08,17.06-6.25,5.55-3.23,12.63-.74,16.4,4.32,3.63,4.86,4,12.93,.8,17.11-1.09-1.71-2.19-3.42-3.36-5.25-.28,1.83-.57,3.78-.94,6.21-3.58-.28-6.88-.53-10.18-.79-4.86-1.34-9.73-2.68-14.59-4.02Z"/><path class="b" d="M267.62,42.06l-.31-.08-.31,.09c-1.99-4.14-3.98-8.27-5.97-12.41,5.7,1.16,11.76,.46,16.79,4.84,1.85,1.61,5.5,1.15,8.32,1.64,10.66,1.44,21.32,2.88,31.99,4.31-2.39,5.16-4.21,10.45-3.58,16.28-2.02-1.63-3.8-3.93-6.11-4.75-7.28-2.57-14.78-4.48-22.14-6.84-6.09-1.95-11.84-5.72-18.68-3.09Z"/><path class="a`" d="M58.44,266.89c6.34,.52,12.67,1.03,19.68,1.6-3.71,14.45-15.17,20.86-27.28,26.62,.86-2.86,1.72-5.71,2.71-8.99-1.11-.31-2.76-.78-4.41-1.21-5.03-1.31-5.72-2.93-2.26-6.69,3.65-3.97,7.7-7.57,11.57-11.33Z"/><path class="w" d="M353.24,23.05l10.18,.79c.37-2.43,.66-4.37,.94-6.21,1.17,1.83,2.26,3.54,3.36,5.25-.56,3.45-1.13,6.9-1.71,10.46,4.11,.39,8.26,.78,12.41,1.17l3.11,11.48c-2.7,.37-5.39,.79-8.1,1.08-6.38,.7-12.77,1.33-19.16,1.99-.67-4.59-1.34-9.19-2.01-13.78,.85-.34,1.69-.69,2.54-1.03q7.48,.43,8.5-3.47l-6.88-.66,.71-.98-3.15-4.34-.73-1.74Zm9.71,3.93c-.24,.14-.61,.24-.66,.43-.06,.21,.16,.5,.26,.76l.9-.57-.51-.61Z"/><path class="ad" d="M535.14,221.06c-7.81,1.64-15.62,3.29-23.43,4.93,1.21-2.68,2.43-5.37,3.64-8.05l-.86-.84c-3.86,2.69-7.71,5.37-11.57,8.06-5.6-3.96-7.37,1.27-10.76,5.77-.36-4.57-.6-7.64-.84-10.71,8.32-1.45,16.67-2.82,23.28-8.78,.43-.39,.64-1.01,.95-1.52,8.65-.03,16.07,2.1,19.58,11.13Z"/><path class="g" d="M509.7,287.28c1.89,.26,3.79,.52,5.9,.81v-24.27c.58-.05,1.16-.09,1.73-.14,.37,2.05,.57,4.14,1.15,6.12,.55,1.87,1.49,3.62,2.26,5.42,1.74-1.05,3.52-2.06,5.21-3.18,.78-.52,1.4-1.27,2.41-2.2,.48,1.01,.85,1.81,1.23,2.6-3.59,9.49-5.11,19.88-12.02,27.94-.81,.94-1.77,1.76-2.65,2.63-.99-.39-2.62-.54-2.88-1.22-1.9-4.8-3.52-9.71-5.22-14.59,.26-.01,.52,0,.79,0,.7,.02,1.4,.04,2.09,.06Z"/><path class="n" d="M318.11,40.45c-10.66-1.44-21.32-2.87-31.99-4.31,2.6-1.2,5.17-3.32,7.81-3.43,10.36-.41,20.76-.36,31.13-.1,3.87,.1,7.72,1.24,11.58,1.9-.1,.24-.12,.49-.06,.75-4.44-.55-7.58,1.54-10.03,4.99-2.82,.07-5.63,.13-8.45,.2Z"/><path class="p" d="M392.07,340.81c-.97-1.95-1.95-3.9-2.92-5.85-.38-2.31-.26-4.86-1.25-6.87-2.44-4.95-5.68-9.51-8-14.51-.8-1.72,.19-4.26,.36-6.43,2.42,.32,4.87,.5,7.24,1.04,.8,.18,1.34,1.35,2.09,1.95,2.88,2.28,5.81,4.5,9.88,7.65,.53-4.55,.82-8.08,1.43-11.56,.21-1.17,1.12-3.03,1.89-3.13,1.76-.23,5.07,.09,5.24,.79,.91,3.77,1.05,7.73,1.46,11.63-.96-1.8-1.86-3.63-2.89-5.38-.49-.84-1.23-1.53-1.86-2.28-.65,.74-1.58,1.39-1.86,2.25-.33,1.03,.05,2.27-.15,3.36-.3,1.61-.57,4.32-1.36,4.52-1.82,.45-4.19,.15-5.91-.71-2.81-1.39-5.23-3.56-7.94-5.2-.9-.55-2.16-.5-3.26-.73-.07,1.31-.63,2.86-.12,3.89,2.42,4.97,5.14,9.79,7.73,14.67,.44,.83,1.06,1.69,1.1,2.57,.2,4.52,2.9,5.69,6.83,5.39-2.58,.98-5.15,1.96-7.73,2.94Z"/><path class="m" d="M50.62,99.48c2.18,2.95,.26,3.98-2.14,5.3-6.01,3.32-7.69,10.25-4.51,14.23l4.85-2.88h0c-.5,2.14-1.43,4.03,1.95,5.18,2.87,.97,2.46,8.81,0,10.96-1.27,1.11-1.98,2.87-2.95,4.33-2.13-.46-4.26-.93-7.52-1.64,1.81-1.52,2.74-2.48,3.84-3.18,4.37-2.79,4.48-4.48,.67-7.65-1.83-1.52-3.7-3.17-4.98-5.13-4.09-6.24-3.17-10.58,3.04-14.99,2.43-1.72,5.16-3.03,7.75-4.53Z"/><path class="b" d="M353.24,23.05c.24,.58,.48,1.16,.73,1.74,.19,3.16-2.99,6.61,.82,9.46-.85,.34-1.69,.69-2.54,1.03v.09l-1.3-1.06-2.8,.32-8.4-.2c-3.37-4.92,.72-10.37-1.1-15.39,4.86,1.34,9.73,2.68,14.59,4.02Z"/><path class="m" d="M58.56,139.49c.46-6.42,4.57-7.83,13.08-4.26v-3.14c3.48-.84,6.07-.78,7.73,2.96,.55,1.25,2.93,1.68,4.47,2.49-1.92,2.99-3.74,6.07-5.89,8.88-.27,.35-2.93-.27-3.47-1.1-6.19-9.41-6.14-9.44-15.91-5.81Z"/><path class="m" d="M83.84,137.54c.25-1.83,.5-3.65,.75-5.51,3.61,.98,7.17,1.94,10.85,2.93,3.5-3.95,13.22-4.85,16.59-1.34-8.17-.61-8.26,6.98-11.38,11.59-3.3-.68-5.47-2.05-5.2-5.69,.51-.41,1.02-.81,1.53-1.22l-.32-.32-1.22,1.53c-3.81-.98-7.16-4.67-11.6-1.98Z"/><path class="m" d="M249.19,22.73c-10.14-.64-20.27-1.69-30.41-1.78-7.39-.06-14.79,1.15-22.19,1.8,5.28-1.57,10.48-4.09,15.85-4.52,11.52-.91,23.14-.84,34.4,2.6,.89,.27,1.57,1.25,2.35,1.9Z"/><path class="w" d="M339.75,34.43c2.8,.07,5.6,.13,8.4,.2,.98,4.82,1.97,9.63,2.95,14.45-2.95-.85-7.94-1.06-8.46-2.68-1.34-4.24-3.21-7.86-6.05-11.13-.06-.26-.04-.5,.06-.75,1.03-.03,2.06-.06,3.1-.09Z"/><path class="p" d="M345.45,341.83c-.95,2.2-1.9,4.4-2.85,6.61-5.77-.48-11.54-1.16-17.32-1.39-8.34-.33-16.69-.33-25.03-.5-2.09-.04-4.18-.2-6.26-.31,3.61-.84,7.24-2.43,10.84-2.36,8.9,.19,17.78,1.19,26.68,1.76,5.05,.33,10.18,.68,13.95-3.81Z"/><path class="m" d="M192.73,22.86v5.02c-6.77,2.28-13.45,4.18-19.83,6.81-3.11,1.29-5.36,4.69-9.41,3.59,1.26-1.09,2.37-2.52,3.82-3.22,5.79-2.76,11.71-5.22,17.52-7.93,2.71-1.26,5.27-2.84,7.9-4.28Z"/><path class="m" d="M261.01,29.66c1.99,4.14,3.98,8.28,5.97,12.41-2.71,.04-5.42,.09-8.13,.13h0c.32-2.41,.63-4.81,.98-7.49-4.47,1.15-5.78-.96-3.82-4.73,.95-1.1,1.89-2.21,2.84-3.31,.72,.99,1.44,1.99,2.16,2.98Z"/><path class="w" d="M382.47,34.72c7.81,1.15,9.01,2.26,10.25,9.47-2.49,.31-4.97,.63-7.46,.94-.93-3.47-1.86-6.94-2.79-10.41Z"/><path class="t" d="M385.26,45.13c2.49-.31,4.97-.63,7.46-.94-.16,1.5-.67,3.06-.39,4.47,.24,1.17,1.41,2.15,2.16,3.21-2.91,1.05-5.83,2.11-8.74,3.16l.02-.09-.51-9.8Z"/><path class="ad" d="M385.26,45.13c.17,3.27,.34,6.53,.51,9.8-.85,.26-1.7,.52-2.55,.79-.56-.35-1.12-.69-1.68-1.04,0-2.89-.01-5.79-.02-8.68l-3.11-11.48,4.06,.21c.93,3.47,1.86,6.94,2.79,10.41Z"/><path class="m" d="M161.62,38.33c-.87,4.02-5.58,7.46-10.72,7.75-1.61,.09-3.23,0-4.85,0,1.47-.98,2.85-2.14,4.43-2.89,3.66-1.73,7.43-3.26,11.15-4.87Z"/><path class="p" d="M272.61,340.53c3.81-.92,15.45,2.67,17.41,5.36-5.8-1.79-11.61-3.57-17.41-5.36Z"/><path class="m" d="M404.69,85.07l-6.69,2.52-.59-1.49c2.45-1.66,4.89-3.32,7.34-4.97-.02,1.31-.04,2.63-.06,3.94Z"/><path class="m" d="M52.7,141.42c1.96-.65,3.91-1.29,5.87-1.94-.59,1.53-1.19,3.07-1.78,4.6-1.36-.89-2.72-1.78-4.09-2.67Z"/><path class="m" d="M47.82,136.59c4.97-1.77,4.73,1.73,4.89,4.83-1.63-1.61-3.26-3.22-4.89-4.83Z"/><path class="m" d="M405.68,81.08c.64-.96,1.27-1.92,1.91-2.89-.64,.96-1.27,1.92-1.91,2.89Z"/><path class="m" d="M256.98,26.61c-.67-.64-1.34-1.28-2.01-1.92,.67,.64,1.34,1.28,2.01,1.92Z"/><path class="m" d="M254.97,24.69c-.65-.62-1.3-1.24-1.95-1.87,.65,.62,1.3,1.24,1.95,1.87Z"/><path class="m" d="M267.62,42.06c6.83-2.63,12.58,1.14,18.68,3.09,7.36,2.35,14.86,4.27,22.14,6.84,2.31,.81,4.09,3.12,6.11,4.76,3.08,1.53,6.03,3.44,9.26,4.51,8.34,2.77,9.03,3.38,9.3,11.91,.1,3.05-.08,6.1-.14,9.15-2.14,5.8,.85,12.51-3.21,17.97-4.48,4.35,.47,8.73-.03,13.09,.13,3.91,.25,7.82,.38,11.73-.08,3.71-.16,7.42-.23,11.13-.05,2.59,1,6.41-.3,7.54-5.65,4.91-2.94,11.05-3.36,16.66-.54,7.29,6.03,13.13,4.6,20.75-.09,.5,1.27,1.27,1.96,1.92-.11,4.84-.22,9.68-.33,14.51-.2,.05-.39,.11-.58,.19-9.46-.68-18.92-1.36-28.38-2.04-.32-4.48-.63-8.96-.95-13.44l.05-2.22c2.95-2.87,5.91-5.73,8.86-8.6,6.46-1.75,4.53-7.31,5.31-11.65,.21-1.95,.42-3.89,.63-5.84,2.06-5.87-.41-8.61-7.85-8.72l-.21-.96c.63-1.44,1.2-2.91,1.91-4.31,1.82-3.61,.87-6.82-.57-10.42-1.72-4.34-2.36-9.11-3.47-13.7,.56-.28,1.14-.84,1.67-.8,7.54,.69,9.96-2.3,9.35-10.65,.25-.84,.89-1.77,.69-2.49-1.72-6.36-8.19-9.61-14.58-7.46-.42-.35-.84-.71-1.25-1.06h.11l-1.4,.18c-2-1.31-4-2.63-6-3.94-.68-5.13-1.25-10.27-2.1-15.37-.28-1.7-1.26-3.28-1.92-4.92-2.04-9.64-11.33-14.6-20.18-15.3-9.84-.58-15.93,4.68-15.67,13.54,.05,1.56,.12,3.11,.18,4.67-.64,.52-1.29,1.05-1.93,1.57l-2.41-.32-2.82-1.6c.75-.51,1.49-1.44,2.25-1.45,3.41-.07,3.73-2.15,3.82-4.87,.15-4.47,.64-8.93,.99-13.52,2.36,.79,4.06,1.35,7.36,2.45-4.47-6.14-1.27-8.38,2.64-10.43,.71-.37,1.08-1.37,1.61-2.08Zm53.63,70.77l-1.54,.25v17.94l1.54-.05v-18.15Z"/><path class="x" d="M202.43,257.62c-.16-.02-.33-.02-.48-.08-15.21-6.27-29.82-2.08-44.44,2.45-2.14,.66-4.43,.81-6.65,1.2,.48-4.24-2.5-3.33-4.7-2.93-5.88,1.07-11.38,.53-17.72-3.65,5.51-4.97,10.54-9.52,15.58-14.07,5.36-5.36,11.04-10.52,11.83-19.47-3.14,0-5.87,.29-8.5-.08-2.49-.35-4.88-1.38-8.19-2.38,2.04-2.45,3.24-3.89,4.43-5.32,1.81-2.16,3.62-4.33,5.43-6.49,7.82-5.29,11.26-13.23,13.89-22.36-4.16,.94-7.76,1.76-11.79,2.67,5.46-10.78,10.59-20.9,15.51-30.61,5.05,10.08,10.25,20.47,15.75,31.45-3.62-.79-7.13-1.55-11.37-2.47,2,9.13,5.85,16.85,13.6,22.33,2.2,2.53,4.54,4.97,6.54,7.66,.86,1.16,1.32,2.84,1.31,4.28,0,.49-1.99,1.28-3.12,1.38-3.91,.34-7.85,.44-12.53,.66,2.09,7.79,6.21,13.82,11.98,18.87,4.22,3.74,8.55,7.37,12.6,11.29,1.45,1.4,3.65,3.26,1.04,5.67Z"/><path class="ac" d="M188.79,240.66c-5.77-5.05-9.89-11.08-11.98-18.87,4.68-.23,8.61-.32,12.53-.66,1.13-.1,3.12-.89,3.12-1.38,.01-1.44-.45-3.13-1.31-4.28-2-2.69-4.34-5.12-6.54-7.66,2.32-1,4.72-1.86,6.95-3.04,10.77-5.7,21.43-11.6,32.25-17.21,6.39-3.31,12.98-6.22,19.48-9.31,4.16,.32,8.32,.64,12.48,.96,.05,1.66,.1,3.33,.15,4.99-.03,2.75-.42,5.56,.05,8.22,.34,1.91,1.84,3.62,2.83,5.42v9.9c2.48,.63,4.13,1.06,5.79,1.48-2.23,.08-4.21,.28-3.78,3.44,1.05,7.79,1.99,15.59,2.98,23.38-.99,.55-1.98,1.55-2.98,1.57-4.92,.1-9.85-.06-14.77-.13-4.95-3.98-6.86-9.37-7.54-15.43,3.77,.85,7.21,1.63,11.18,2.52-5.58-10.98-10.69-21.02-16.01-31.47-4.99,9.94-9.82,19.56-15.13,30.14,4.17-.63,7.47-1.13,11.07-1.67-1.75,7.65-4.52,14.17-10.29,19.07-7.59,0-15.17-.01-22.76-.02-2.59,0-5.17,.02-7.76,.03Z"/><path class="ac" d="M149.02,206.8c-1.81,2.16-3.62,4.33-5.43,6.49-1.2,1.43-2.39,2.87-4.43,5.32,3.31,1,5.7,2.03,8.19,2.38,2.64,.37,5.37,.08,8.5,.08-.79,8.95-6.47,14.11-11.83,19.47-1.84-.28-3.77-1.06-5.51-.76-11.02,1.91-22.03,2.64-33.14,.91-.31-.57-.7-1.11-.9-1.71-.14-.42-.03-.92-.03-1.25,4.03-.32,7.97-.48,11.86-1.02,1.2-.17,2.26-1.36,3.38-2.08-.71-.98-1.33-2.06-2.16-2.93-5.33-5.56-10.88-10.93-15.99-16.68-1.79-2.01-2.56-4.92-4.24-8.3,3.89,.73,6.77,1.28,9.65,1.82,2.56,.48,2.57-.98,2.09-2.79,5.24-.01,10.49-.04,15.73-.03,6.27,.02,12.54,0,18.8,.15,1.83,.04,3.65,.59,5.47,.91Z"/><path class="f" d="M203.47,119.11c1.6-.01,3.2-.02,4.8-.04,6.93,1.13,12.23,4.87,16.68,12.01,1.64-3.77,2.66-6.12,4.21-9.7,3.39,.76,7.31,1.64,11.23,2.52,1.25,1.31,2.3,3.08,3.83,3.72,.69,.29,2.77-1.43,3.38-2.66,.5-1.01-.23-2.64-.42-3.99l.91-1.88c1.01-.03,2.02-.05,3.03-.08,.62,.97,1.24,1.93,1.86,2.9l1.04,21.35-2.94,.11-1.94,.05c-4.44-.03-8.88-.07-13.32-.07-13.75-.01-27.49-.05-41.24,0-11.91,.05-11.77,.83-11.51-11.62h0c5.62-.46,11.48-3.51,16.24,2.34,1.55-5.55,2.86-10.26,4.17-14.97Z"/><path class="m" d="M251.07,143.37c.98-.04,1.96-.07,2.94-.11,.38,.36,.76,.71,1.14,1.07-.12,.3-.19,.61-.22,.94-5.32,3.55-6.3,5.45-4.57,8.85-.08,2.26-.17,4.52-.25,6.78-2.28,8.97-1.3,11.83,5.73,16.74,.22,.15,.27,.55,.4,.84-.23,.19-.39,.44-.46,.73-4.16-.32-8.32-.64-12.48-.96-1.82-5.43-4.92-10.61-2.21-17.3h5.54c-.23-5.04-8.63-5.67-5.27-11.76,.49-.39,.99-.78,1.48-1.17l-.31-.31c-.39,.49-.78,.99-1.17,1.48-2.71-.65-5.39-1.64-8.14-1.86-4.01-.32-8.07,.14-12.09-.13-6.29-.44-12.55-1.64-18.84-1.74-6.82-.11-13.66,.67-21.16,1.1,0-4.18-.07-8.64,.09-13.09,.02-.6,1.2-1.16,1.85-1.73-.26,12.45-.39,11.66,11.51,11.62,13.75-.05,27.49-.02,41.24,0,4.44,0,8.88,.05,13.32,.07,.26,.49,.51,.98,.77,1.46l1.17-1.51Zm-5.69,11.03l1.27,.07v-3.74l-1.07-.02c-.07,1.23-.13,2.46-.2,3.68Zm.13,11.76l1.15,.07,.13-2.82-1.13-.06c-.05,.94-.1,1.87-.15,2.81Zm3.24,9.03c-.27-.12-.6-.39-.79-.31-.19,.08-.25,.5-.37,.76,.27,.12,.6,.39,.79,.31,.2-.08,.25-.49,.37-.77Z"/><path class="b" d="M225.78,117.13c-.83-.39-1.66-.77-2.49-1.16-3.7-3.07-3.67-7.18-3.2-11.42l-.02,.03c1.27-1.33,2.53-2.66,3.8-3.99l.2,.06c3.16-2.62,6.33-5.24,9.5-7.86,3.64-3.1,7.28-6.2,10.92-9.3,.25-1.57,.35-3.18,.77-4.69,.95-3.37,2.72-5.68,6.76-4.47-1.68,4.08-2.19,7.78,3.09,9.62-4.62,4.59-9.24,9.17-13.85,13.76-1.79,1.2-3.57,2.4-4.4,2.96,.64,2.81,1.37,4.57,1.37,6.34,0,3.04-.47,6.08-.74,9.12-3.55,.18-7.1,.35-10.65,.53l-1.06,.46Z"/><path class="m" d="M244.48,83.5c-3.64,3.1-7.28,6.2-10.92,9.3-1.92,.66-3.84,1.33-5.75,1.99-1.03-1.91-2.09-3.79-3.07-5.73-.52-1.02-.88-2.13-.78-3.83,5.37,5.33,9.59-1.63,14.35-.71,.43,.08,1.67-3.59,2.35-5.59,.15-.45-.71-1.16-.7-1.75,.04-2.47,.22-4.93,.36-7.4,2.61,.73,5.23,1.46,7.84,2.19-6.38,2.82-7.64,6.77-3.68,11.53Z"/><path class="m" d="M225.78,117.13c.35-.15,.7-.31,1.05-.46,1.09,.44,2.15,1,3.27,1.3,5.03,1.33,10.08,2.59,15.13,3.87-1.62,.69-3.23,1.38-4.85,2.07-3.92-.88-7.84-1.76-11.23-2.52-1.55,3.57-2.57,5.92-4.21,9.7-4.45-7.13-9.75-10.88-16.68-12.01,2.48-2.87,5.69-1.35,7.72-.17,4.15,2.41,7.08,1.9,9.78-1.77Z"/><path class="m" d="M203.47,119.11c-1.31,4.71-2.63,9.41-4.17,14.97-4.76-5.85-10.62-2.8-16.24-2.33,.31-5.5,4.22-8.04,9.09-5.25,4.05,2.32,5.05,.62,6.6-2.73,.84-1.8-.07-6.51,4.72-4.65Z"/><path class="m" d="M88.41,93.21h37.5v.97h-37.49v-.97Z"/><path class="ac" d="M144.48,93.94c2.82-.77,5.65-1.55,8.47-2.32l.52,1.55c-3.7,.96-8.16,.95-8.53,6.18l-.11,.11c-3.5,.09-7.01,.19-10.51,.28-.46-.48-.93-.96-1.39-1.43-.09-.34-.19-.68-.28-1.02,.57-.1,1.15-.19,1.73-.29,2.15-.55,4.3-1.09,6.45-1.64,2.55,3,2.45-.89,3.65-1.4Z"/><path class="m" d="M216.49,48.68c4.87-.59,9.73-1.18,15.06-1.83-.36,1.42-.73,2.89-1.25,4.96l-13.61-1.65-.21-1.47Z"/><path class="w" d="M244.48,83.5c-3.96-4.76-2.7-8.71,3.68-11.53,.26,.13,.52,.13,.78,.01,.94,.53,1.88,1.07,2.82,1.59-.16,.35-.07,.59,.29,.72l-.04,.04c-4.03-1.21-5.81,1.1-6.76,4.47-.43,1.52-.53,3.13-.77,4.69Z"/><path class="m" d="M194.68,43.17c-.67-.82-1.34-1.64-2.32-2.83l5.66-1.45v2.82c.57,.16,.87,.32,1.17,.33,1.63,.06,3.27,.06,4.89,.19,.05,0,.17,1.66,0,1.72-1.58,.5-3.29,1.28-4.82,1.04-1.53-.24-4.41,2-4.58-1.81,.14,.07,.27,.14,.41,.22l-.4-.23Z"/><path class="m" d="M73.32,97.95c2.5-1.01,4.93-2.31,7.53-2.84,.74-.15,1.95,1.94,2.94,3.01-.93,.81-1.85,2.28-2.79,2.3-2.52,.05-5.06-.52-7.59-.84l-.08-1.64Z"/><path class="m" d="M48.82,116.12l-1.84-7.11c.67-.22,2.3-.77,3.93-1.31,.59,2.05,1.58,4.1,1.56,6.14,0,.77-2.37,1.52-3.65,2.28h0Z"/><path class="n" d="M169.39,113.21c-1.82-.43-3.63-.85-5.76-1.35,2.56-6,7.26-.71,11.34-3.36-1.82,2.32,2.52,5.54-2.66,5.68l-1.22-2.72-1.7,1.75Z"/><path class="m" d="M212.24,99.03c1.23,1.42,3.29,2.77,3.43,4.29,.1,1.17-2.22,2.55-3.46,3.84l-2.5-6.8,2.53-1.33Z"/><path class="m" d="M258.85,42.21c-.02,1.91,.11,3.85-.13,5.73-.09,.7-1.07,1.28-1.64,1.91-.69-.67-1.93-1.31-1.98-2.03-.21-2.71-1.14-6.21,3.75-5.61h0Z"/><path class="o" d="M227.81,94.78c1.92-.66,3.84-1.33,5.75-1.99-3.17,2.62-6.33,5.24-9.5,7.86-.05-.63-.1-1.26-.15-1.89,1.29-1.33,2.57-2.66,3.86-3.98h.03Z"/><path class="m" d="M220.09,104.55c-.48,4.24-.5,8.35,3.2,11.42-1.74-1.22-4.82-2.34-4.93-3.69-.19-2.46-2.51-6.07,1.73-7.73Z"/><path class="m" d="M154.29,99.1c-1.09,.65-1.78,1.4-2.26,1.28-.69-.17-1.23-.97-1.83-1.51,.6-.38,1.2-1.04,1.81-1.05,.59-.02,1.2,.64,2.28,1.28Z"/><path class="m" d="M227.78,94.78c-1.29,1.33-2.57,2.65-3.86,3.98-.53-3.09,.66-4.51,3.86-3.98Z"/><path class="m" d="M132.94,98.3c.46,.48,.93,.96,1.39,1.43-.87,.97-1.73,1.94-2.6,2.91l-1.2-1.01c.8-1.11,1.61-2.23,2.41-3.34Z"/><path class="m" d="M223.86,100.59c-1.27,1.33-2.53,2.66-3.8,3.99-.61-3.11,.66-4.44,3.8-3.99Z"/><path class="m" d="M169.39,113.21l1.7-1.75c.41,.91,.81,1.82,1.22,2.72-.83,.34-1.65,.68-2.71,1.12l-.21-2.09Z"/><path class="n" d="M176.42,111.69c.12-.95,.24-1.89,.36-2.84,.55,.17,1.56,.3,1.58,.5,.05,.86-.19,1.73-.32,2.6l-1.62-.26Z"/><path class="m" d="M144.48,93.94c-1.2,.51-1.1,4.41-3.65,1.4,1.22-.46,2.43-.93,3.65-1.4Z"/><path class="m" d="M176.63,37.86h-2.78l-.13-.85,2.83-.45,.07,1.3Z"/><path class="m" d="M134.38,96.99c-.58,.1-1.15,.19-1.73,.29,.21-.67,.43-1.34,.64-2.01l1.09,1.72Z"/><path class="m" d="M144.95,99.35l.65,.75c-.4-.35-.58-.5-.76-.65l.1-.11Z"/><path class="m" d="M207.28,41.28l-.39-.27,.47,.19-.08,.08Z"/><path class="m" d="M207.36,41.2l.38,.26c-.15-.06-.31-.12-.46-.18l.08-.08Z"/><path class="t" d="M332.76,183.1c-.69-.64-2.05-1.42-1.96-1.92,1.43-7.62-5.14-13.46-4.6-20.75,.42-5.61-2.29-11.75,3.36-16.66,1.3-1.13,.25-4.96,.3-7.54,.07-3.71,.15-7.42,.23-11.14,3.02,.94,6.06,1.84,9.06,2.87,.71,.24,1.31,.86,1.9,1.37,6.58,5.58,13.6,9.93,22.81,8.19,6.81-.23,13.62-.46,20.43-.69,.88,1.63,1.91,3.21,2.61,4.91,.97,2.36,2.01,4.76,2.44,7.24,.63,3.63,.78,7.35,1.04,11.03,.09,1.25,.33,3.31-.28,3.67-6.2,3.67-3.39,9.59-3.95,14.65-.1,.91-.53,1.78-.81,2.66-3.44,.4-6.89,.8-10.34,1.21-2.32,.1-4.64,.21-6.96,.31-2.41,.13-3.67-.75-4.16-3.39-1.13-6.2-2.66-12.34-4.02-18.5l-2.2-.09c-.57,3.72-1.09,7.45-1.71,11.16-.68,4.08-1.44,8.15-2.18,12.24-2.08,.14-3.82,.26-5.56,.38-5.16-.41-10.32-.81-15.48-1.22Z"/><path class="ab" d="M363.87,137.52c-9.21,1.74-16.23-2.61-22.81-8.19-.6-.51-1.2-1.13-1.9-1.37-3-1.02-6.04-1.92-9.06-2.87-.13-3.91-.25-7.81-.38-11.72,.11-2.06,.21-4.12,.34-6.49,2.61,.55,5.07,.71,7.22,1.61,4.3,1.79,7.11-.23,9.64-3.2,2.65-3.11,1.96-5.7-2-6.93-2.7-.84-5.56-1.18-8.35-1.74l-.02-4.67c.58-1.11,1.55-2.18,1.69-3.34,.9-7.69,1.63-15.4,2.42-23.1,.6-1.28,1.21-2.57,1.81-3.85,1.92,1.23,5.29,2.24,5.51,3.72,.82,5.62,4.7,5.85,8.73,5.98,5.01,.17,10.03,0,15.05,.02,4.29,0,8.58,.05,12.86,.08,.33,2.76,.66,5.52,.99,8.28-1.96,6.31-7.86,5.76-12.59,7.22-11.35,3.5-17.57,1.26-23.72-8.47-.11-.18-.54-.15-.97-.26,0,2.31,.23,4.59-.05,6.81-.55,4.43,1.12,7.14,5.51,8.08,2.95,.63,6.25,.57,8.81,1.93,8.89,4.72,16.18-1.93,24.2-3.06,.99-.14,1.63-2.78,2.43-4.27,.3,.32,.6,.63,.9,.95,.78,2.08,1.56,4.15,2.34,6.23,2.75,.35,5.53,.71,8.31,1.07-2.9,1.53-5.81,3-8.91,.49-2.46-2-4.62-.62-6.93,.42-3,1.35-6.07,3.32-9.19,3.49-6.07,.33-12.2-.54-18.31-.65-2.31-.04-4.63,.66-7.01,1.03,0,8.47-.31,16.33,.19,24.14,.15,2.36,2.07,5.07,3.96,6.73,2.73,2.39,6.17,3.97,9.3,5.9Z"/><path class="x" d="M430.54,183.21c-4.76,1.88-9.52,3.77-14.28,5.65-6.15,2.45-11.08,6.18-14.79,11.91-2.87,4.43-6.8,8.19-10.39,12.13-1.51,1.65-3.35,2.99-5.86,5.19v-5.65l.34-.92c6.32-3.36,10.32-8.6,12.48-15.34l2.22-4.67c-5.34-.51-10.06-.96-14.78-1.41l-.03-4.76c5.93-7.19,12.04-14.23,17.66-21.65,1.7-2.24,2.05-5.51,3.18-8.81-4.47,.95-8,1.69-11.67,2.47,5.35-10.56,10.44-20.59,15.45-30.47,5,9.98,10.18,20.32,15.74,31.44-3.81-.9-7.41-1.74-11.26-2.65,.8,7.66,4.95,13.85,9.81,19.73,2.12,2.56,4.12,5.22,6.18,7.84Z"/><path class="ae" d="M363.87,137.52c-3.14-1.93-6.58-3.5-9.3-5.9-1.89-1.66-3.81-4.38-3.96-6.73-.49-7.81-.19-15.67-.19-24.14,2.38-.37,4.7-1.07,7.01-1.03,6.11,.11,12.24,.97,18.31,.65,3.12-.17,6.18-2.14,9.19-3.49,2.31-1.04,4.47-2.41,6.93-.42,3.1,2.52,6.01,1.05,8.91-.49,3.99,1.73,4.9,4.41,3,8.83-.98,.51-1.95,1.02-2.92,1.52-1.6,.56-3.2,1.11-4.8,1.67,.95,2.08,1.91,4.17,2.86,6.25-.88,2.96-1.76,5.92-2.64,8.88-2.23,6.1-6.97,10-11.95,13.7-6.81,.23-13.62,.46-20.43,.69Zm-7.44-28.74l-1.38,.58c.12,2.08,.2,4.16,.38,6.23,.19,2.24,.33,4.5,.76,6.7,1.38,7.06,4.32,9.39,11.58,9.39,2.75,0,5.54,.29,8.25-.06,5.63-.73,11.99-.46,14.25-7.5,.86-2.67,1.18-5.51,1.89-9-5.85,.35-11.08,.78-16.33,.93-5.44,.16-10.9,.03-15.57,.03-1.56-2.99-2.69-5.15-3.82-7.31Z"/><path class="x" d="M464.95,171.51c-6.78,1.62-13.56,3.25-20.34,4.87,.39-1.84,.78-3.67,1.23-5.82-4.01,.85-7.53,1.59-11.3,2.39,5.36-10.65,10.47-20.77,15.29-30.35,4.85,9.28,9.98,19.1,15.11,28.91Z"/><path class="d" d="M385.59,79.73c-.33-2.76-.66-5.52-.99-8.28,3.92-5.63,.19-10.59-1.38-15.74,.85-.26,1.7-.53,2.55-.78v.09c2.26,6.8,5.29,13.46,6.52,20.44,.73,4.15-1.36,8.79-2.19,13.21-.3-.32-.6-.63-.9-.95-1.21-2.66-2.41-5.33-3.62-7.99Z"/><path class="w" d="M400.84,106.33c.97-.51,1.95-1.02,2.92-1.52-1.28,5.19-2.4,10.44-3.98,15.54-.37,1.18-2.32,1.87-3.53,2.79,.88-2.96,1.77-5.92,2.65-8.88,.65-2.64,1.29-5.28,1.94-7.92Z"/><path class="k" d="M385.45,185.32c0,1.59,.02,3.18,.03,4.76-.07,1.28-.13,2.56-.19,3.83-.63-1.24-1.74-2.46-1.82-3.74-.4-6.74-1.56-7.94-8.45-7.96,3.44-.4,6.89-.8,10.33-1.21,.03,1.44,.07,2.87,.1,4.31Z"/><path class="a`" d="M105.37,240.69c11.1,1.74,22.12,1.01,33.14-.91,1.74-.3,3.67,.48,5.51,.76-5.04,4.55-10.07,9.1-15.58,14.07,6.34,4.18,11.83,4.72,17.72,3.65,2.2-.4,5.19-1.32,4.7,2.93-8.62,2.55-14.8,8.34-20.54,14.96-3,3.47-6.9,6.16-10.4,9.2-5.36-4.33-9.66-9.26-10.07-16.98,7.26,.32,14.24,2.05,21.57-2.64-3.24-2.8-6.15-5.36-9.11-7.87-4.78-4.05-9.7-7.94-14.32-12.16-1.31-1.2-1.78-3.31-2.63-5Z"/><path class="i" d="M317.39,298.89c-1.36,2.63-2.73,5.26-4.09,7.89-1.84-.86-3.84-1.5-5.5-2.63-5.02-3.41-7.01-2.77-8.75,2.84-.51,1.65-1.65,3.11-2.5,4.66-.58-.19-1.16-.37-1.75-.56,0-2.51,0-5.02,0-7.52,.01-6.62-1.83-8.89-8.26-10.36-9.99-2.29-20.04-4.35-29.92-7.05-5.08-1.39-9.82-1.03-13.9,1.67-7.92,5.24-16.65,4.97-25.23,4.03-5.28-.58-10.16-.81-15.05,1.27,2.35-6.97,8.82-8.35,14.41-8.4,8.03-.07,15.09-2.68,22-5.7,5.95-2.6,11.9-2.28,17.97-2.49,1.66-.06,3.31-.67,4.96-1.03,2.24,0,4.47-.02,6.71-.02,3.59,1.02,7.18,2.03,10.78,3.05,10.77,3.23,23.76,.87,31.22,12.44,.12,.18,.6,.12,.92,.17,1.99,2.58,3.98,5.16,5.97,7.74Z"/><path class="p" d="M286.09,333.98c-2.58-1.29-5.12-2.66-7.75-3.83-.65-.29-2.11-.23-2.28,.12-3.16,6.43-5.89,.96-8.29-.53-2.03-1.26-3.38-3.6-5.03-5.46,1.1,.15,2.42-.04,3.26,.5,3.35,2.18,6.22,3.5,10.69,1.71,5.03-2.02,9.34,2.03,9.41,7.49Z"/><path class="p" d="M251.11,318.39c-2.97-.17-4.95,.41-2.98,3.96-.77-.19-1.72-.15-2.27-.6-1.71-1.42-3.26-3.02-4.88-4.56l-1.29,.83c-.09-1.56-.37-3.13-.22-4.66,.14-1.48,.72-2.91,1.11-4.36,1.02,.9,1.91,2.15,3.1,2.61,2.02,.77,4.23,1.03,7.08,1.67,.1,1.43,.23,3.28,.35,5.13Z"/><path class="p" d="M301.64,328.15c-5.97-3.17-7.69-1.88-7.81,5.87-3.01-2.92-2.47-11.82,1.1-13.11,1.13-.41,3.43,1.1,4.54,2.32,1.14,1.26,1.48,3.25,2.18,4.91Z"/><path class="p" d="M309.38,318.39c-.85,3.95-1.7,7.9-2.76,12.81-1.7-1.04-3.34-2.05-4.98-3.05,3.45,.51,4.23-1.39,3.89-4.3-.34-2.96,.42-5.15,3.85-5.45Z"/><path class="p" d="M262.72,324.28c-4.17-.39-9.06,.43-9.73-5.82,4.01,.66,7.92,1.48,9.73,5.82Z"/><path class="ad" d="M416.36,192.98c-.02,1.29-.06,2.58-.06,3.88,0,8.6,3.28,13.34,11.66,15.29,7.39,1.71,13.29,5.54,18.59,10.66,8.36,8.08,14.77,9.03,25.4,4.18,4.67-2.13,9.56-3.78,14.35-5.65-.26,1.92-.52,3.84-.77,5.76,.38,3.38,.76,6.76,1.14,10.21l-4.16-.59c-.31-.06-.62-.11-.93-.14-2.6-1.91-5.21-3.83-7.81-5.74l-1.17,1.36c1.97,2.15,3.95,4.3,5.92,6.45-.99,.47-2.09,1.48-2.94,1.3-2.12-.44-4.1-1.63-6.22-2.06-.68-.14-1.66,1.16-2.5,1.8-2.1,0-4.22-.21-6.29,.02-10.43,1.17-20.35,.24-29.95-4.71-11.6-5.97-23.6-4.97-35.57-.45-3.43,1.29-7.17,1.75-10.76,2.59-.43-.78-.86-1.56-1.29-2.33l.18-.4c2.76-1.73,6.18-2.92,8.16-5.29,4.09-4.91,6.69-11.23,11.26-15.54,5.18-4.88,8.12-10.58,10.66-16.86,.58-1.43,2.05-2.51,3.1-3.75Z"/><path class="j" d="M416.36,192.98c-1.06,1.24-2.52,2.32-3.1,3.75-2.54,6.28-5.47,11.98-10.66,16.86-4.57,4.3-7.16,10.63-11.26,15.54-1.98,2.38-5.39,3.57-8.16,5.3,.68-7.33,1.35-14.66,2.03-21.99v5.65c2.51-2.19,4.35-3.53,5.86-5.19,3.59-3.94,7.52-7.7,10.39-12.13,3.71-5.73,8.64-9.45,14.79-11.91,.03,1.37,.07,2.75,.11,4.12Z"/><path class="g" d="M481.59,236.58c.31,.03,.62,.08,.93,.14-.28,4.61,3.06,3.81,5.82,3.89,.39,.49,.77,.99,1.16,1.48l.31-.31c-.49-.39-.99-.78-1.48-1.16,.13-4.73,.33-9.47-2.79-13.52,.26-1.92,.52-3.84,.77-5.76,.04-.38,.08-.76,.12-1.15,1.28-.98,2.56-1.96,3.84-2.93,.35,.99,.7,1.98,1.04,2.97,.24,3.07,.48,6.14,.84,10.71,3.39-4.5,5.16-9.73,10.76-5.77-1.03,4.62-1.41,9.52-6.26,12.29-.59,.34-.37,2.09-.53,3.18-.63,3.17-1.27,6.34-1.9,9.51-1.64,2.02-3.29,4.04-4.93,6.05-3.57-3.89-7.15-7.78-10.72-11.66-3.9-1.61-7.81-3.22-11.71-4.83,.84-.64,1.81-1.94,2.5-1.8,2.13,.43,4.1,1.62,6.22,2.06,.85,.18,1.95-.83,2.94-1.3,1.02-.69,2.04-1.38,3.06-2.07Z"/><path class="p" d="M490.28,217.26c-1.28,.98-2.56,1.96-3.84,2.93,.57-2.17,1.14-4.35,1.71-6.52,.54,.07,1.09,.15,1.63,.22,.17,1.12,.33,2.24,.5,3.37Z"/><path class="x" d="M219.3,240.64c5.77-4.9,8.54-11.42,10.29-19.07-3.6,.54-6.89,1.04-11.07,1.67,5.31-10.58,10.14-20.2,15.13-30.14,5.32,10.46,10.42,20.5,16.01,31.47-3.97-.9-7.41-1.67-11.18-2.52,.69,6.05,2.59,11.44,7.55,15.43,3.83,4.65,7.7,9.27,11.48,13.96,.96,1.19,1.65,2.61,2.47,3.92-1.61,.89-3.16,2.37-4.86,2.56-3.46,.4-7.01,.12-11.46,.12,1.73,4.39,3.17,8.05,4.61,11.71-7.82-1.32-15.66-2.6-23.46-4.02-1.15-.21-2.16-1.13-3.24-1.72,.8-2.05,1.61-4.1,2.45-6.24-5.92-.66-11.3-1.26-16.67-1.86l-.09-1.64c4.01-4.55,8.02-9.09,12.04-13.64Z"/><path class="a`" d="M248.28,269.76c-1.44-3.66-2.88-7.32-4.61-11.71,4.45,0,7.99,.28,11.46-.12,1.69-.2,3.24-1.67,4.86-2.56-.82-1.31-1.51-2.72-2.47-3.92-3.78-4.69-7.64-9.31-11.48-13.96,4.92,.07,9.85,.23,14.77,.13,1-.02,1.99-1.02,2.98-1.57,.11-.12,.21-.27,.34-.33,.05-.02,.28,.14,.29,.24,.74,6.75,1.47,13.5,2.2,20.24l.04,9.83c-2.53,1.94-5.07,3.89-7.6,5.83-3.59-.7-7.19-1.4-10.78-2.09Z"/><path class="a`" d="M219.3,240.64c-4.01,4.55-8.02,9.09-12.04,13.64l.09,1.64c5.38,.6,10.75,1.2,16.67,1.86-.84,2.14-1.64,4.19-2.45,6.24-6.09-1.43-12.18-2.82-18.24-4.37-.45-.11-.62-1.34-.92-2.04,2.61-2.41,.41-4.26-1.04-5.67-4.05-3.92-8.38-7.55-12.6-11.29,2.59-.01,5.17-.03,7.76-.03,7.59,0,15.17,0,22.76,.02Z"/><path class="f" d="M259.06,271.86c2.53-1.94,5.07-3.89,7.6-5.83,2.51,.35,5.8-2.09,7.13,2.32,1.52,5.03,1.11,5.73-5.28,7.15-2.24,0-4.47,.02-6.71,.02-1.45-.28-2.91-.56-4.35-.84,.54-.94,1.07-1.89,1.61-2.83Z"/><path class="o" d="M466.87,239.7c3.9,1.61,7.81,3.22,11.71,4.83-4.23,1.29-8.51,3.81-12.67,3.65-13.2-.53-22.63,6.53-31.9,14.22-3.6,2.98-2.48,7.23-1.54,10.86,.91,3.54,2.89,6.8,4.39,10.18,.01,.98,.02,1.95,.03,2.93-.06,.29-.07,.59-.02,.88-1.65,2.62-3.3,5.23-4.95,7.85-.71-1.41-1.68-2.76-2.09-4.25-2.59-9.46-5.06-18.96-7.54-28.45-2.57-9.85-6.19-11.13-14.36-5.03-5.12,3.82-8.69,3.72-14.08,.18-4.61-3.03-9.3-5.06-15.37-3.69-9.08,2.05-18.25,3.13-27.77,1.53-9-1.51-18.25-1.65-27.4-2.04-2.27-.1-4.7,.9-6.88,1.81-7.99,3.36-15.91,6.9-23.85,10.38,.05-.48,.09-.95,.14-1.43,1.66-1.67,3.31-3.34,4.97-5.01,1.41-2.23,2.38-5.03,4.33-6.59,4.58-3.68,9.7-6.68,14.48-10.13,4.43-3.2,9.31-4.03,14.57-3.4-3.58,3.62-7.17,7.24-11.74,11.86,4.2,.19,7.3,.5,10.39,.43,10.78-.24,11.07-.49,8.84-11.89,.36-.88,.72-1.75,1.08-2.63,11.89-2.8,23.55-1.68,35.05,2.04-1.64,3.23-3.27,6.46-4.98,9.84,4.36,2.83,9.06,2.3,12.52,.08,1.49-.96,.48-5.88,.52-9,0-.62-.34-1.24-.53-1.86l.07-.32,1.99-.37c3.6-.84,7.34-1.3,10.76-2.59,11.97-4.52,23.97-5.51,35.57,.45,9.61,4.94,19.53,5.87,29.95,4.71,2.07-.23,4.19-.03,6.29-.02Z"/><path class="p" d="M472.72,306.8c-.95-.1-1.92-.1-2.84-.31-1.42-.32-2.81-.78-4.21-1.18-.19,1.86-.76,3.78-.48,5.56,.33,2.09,2.88,3.66,.24,6.26-2.74,2.7-4.24-.36-6.3-.59-.63-.07-1.27-.04-1.91-.06,1.59-.97,3.18-1.93,5.84-3.55-.16-3.01-.37-7.15-.62-12.06,3.16-3.34,5.65-2.18,10.28,5.92Z"/><path class="p" d="M443.58,287.28c-.64-2.58-1.27-5.16-1.91-7.74,.7-1.69,1.04-3.71,2.2-4.97,1.12-1.21,3.08-1.64,4.68-2.41,.29,1.67,1.29,3.66,.72,4.96-1.54,3.54-3.75,6.8-5.69,10.17Z"/><path class="p" d="M484.42,302.88h-4.61c-1.12,2.99-2,5.33-2.87,7.67-1.38-.62-2.76-1.25-4.15-1.87,2.83,.38,3.86-.7,4-3.7,.13-2.69,1.34-5.33,2.07-7.99l2.45-.23,3.11,6.11Z"/><path class="p" d="M451.36,312.56c.48-3.06-.91-4.25-3.87-3.86,.03-.16,0-.4,.09-.46,1.85-1.14,3.66-2.37,5.63-3.26,.31-.14,2.04,1.67,1.9,1.91-1.09,1.98-2.46,3.8-3.75,5.67Z"/><path class="j" d="M436.8,312.6c-.49,1.19-.98,2.39-1.47,3.58-.42-.14-.84-.28-1.27-.42,.15-4.54-.16-9.19,3.71-12.86-.32,3.23-.65,6.46-.97,9.69Z"/><path class="p" d="M492.2,300.9c-.53,2.49-1.05,4.98-1.58,7.47l-1.67,.04c-.86-1.19-1.71-2.38-2.57-3.57,1.94-1.32,3.88-2.63,5.82-3.95Z"/><path class="p" d="M486.35,304.82c-.64-.65-1.28-1.29-1.92-1.94,.64,.65,1.28,1.29,1.92,1.94Z"/><path class="y" d="M292.58,265.53c7.95-3.47,15.86-7.02,23.85-10.38,2.18-.92,4.61-1.91,6.88-1.81,9.15,.39,18.4,.53,27.4,2.04,9.52,1.6,18.69,.53,27.77-1.53,6.07-1.37,10.76,.66,15.37,3.69,5.39,3.54,8.96,3.64,14.08-.18,8.17-6.09,11.79-4.81,14.36,5.03,2.48,9.49,4.96,18.99,7.54,28.45,.41,1.5,1.38,2.84,2.09,4.25-.48,5.16-6.43,7.96-5.83,13.59-1.16,.73-2.24,1.67-3.5,2.14-1.34,.5-3.19,1.21-4.21,.68-3.88-2.02-3.96,.29-3.96,3.01-.69,2.21-1.38,4.42-2.06,6.62l-1.32-.03c-.51-1.86-1.02-3.73-1.53-5.59-.41-3.9-.55-7.86-1.46-11.63-.17-.7-3.47-1.02-5.24-.79-.78,.1-1.69,1.96-1.89,3.13-.61,3.48-.9,7.01-1.43,11.56-4.07-3.14-7-5.37-9.88-7.65-.75-.6-1.29-1.76-2.09-1.95-2.37-.54-4.82-.72-7.24-1.04-.17,2.17-1.15,4.71-.36,6.43,2.32,5,5.55,9.56,8,14.51,.99,2,.86,4.56,1.25,6.87-8.41-1.95-16.9-3.64-25.22-5.93-6.8-1.86-13.25-5.03-15.56-12.33-2-6.31-5.73-10.08-11.9-12.06-3.93-1.27-7.66-3.18-11.48-4.8,0-.29,0-.58,0-.87,.85-1.18,1.91-2.27,2.49-3.57,.5-1.11,.45-2.47,.64-3.71-1.53,0-3.26-.42-4.53,.16-1.09,.49-1.67,2.13-2.48,3.25-.32,.63-.63,1.26-.95,1.88-1.8-3.17-3.6-6.35-5.65-9.95-1.26,1.67-2.18,2.89-3.1,4.11-.31-.05-.8,0-.92-.17-7.46-11.57-20.45-9.21-31.22-12.44-.62-1.38-1.25-2.77-2.16-4.79,2.09,0,3.48,0,4.86,0,1.56-.49,3.47-.58,4.6-1.57,2.23-1.95,4.02-4.4,5.99-6.65Z"/><path class="p" d="M414.42,314.52c0-2.72,.08-5.03,3.96-3.01,1.02,.53,2.87-.18,4.21-.68,1.26-.47,2.34-1.41,3.5-2.14-1.58,3.12-3.13,6.26-4.86,9.31-.06,.1-1.89-.75-2.85-1.25-1.35-.7-2.64-1.49-3.96-2.23Z"/><path class="y" d="M436.87,287.25c-.04-.3-.04-.59,.02-.88,.11,.21,.24,.42,.31,.65,.01,.04-.22,.16-.34,.24Z"/><path class="p" d="M496.14,240.64c.16-1.1-.06-2.85,.53-3.18,4.85-2.77,5.22-7.67,6.26-12.29,3.86-2.69,7.71-5.37,11.57-8.06l.86,.84c-1.21,2.68-2.43,5.37-3.64,8.05-.08,.63-.01,1.73-.28,1.82-6.83,2.23-9.3,9.65-15.3,12.83Z"/><path class="y" d="M321.06,326.19c-1.42,1.84-2.85,3.68-4.33,5.6-3.37-3.36-3.55-6.49-1.37-10.24,1.12-1.92,1.1-4.48,1.92-6.62,.7-1.83,1.87-3.48,2.84-5.21,1.43,1.27,2.91,2.49,4.27,3.82,1.58,1.55,3.05,3.2,4.56,4.8-2.5,2.74-7.81,2.65-7.89,7.84Z"/><path class="p" d="M336.76,333.86c.59,1.35,1.19,2.7,1.78,4.04-1.77,2.31-3.6,3.55-6.86,2.3-2.12-.82-4.76-.27-7.16-.4-3.17-.17-4.79-2.66-2.88-5.05,1.57-1.96,4.13-3.13,6.26-4.65-1.3,2.39-1.25,4.01,2.12,3.88,2.24-.09,4.49-.09,6.74-.13Z"/><path class="i" d="M328.95,318.35c-1.52-1.61-2.99-3.26-4.56-4.8-1.36-1.34-2.84-2.55-4.27-3.82,.67-1.98,1.34-3.97,2.02-5.95,5.84,3.11,6.71,9.12,8.5,14.6-.56,0-1.12-.02-1.68-.02Z"/><path class="p" d="M328.95,318.35c.56,0,1.12,.02,1.68,.02,.69,2.61,1.39,5.22,2.08,7.83-1.28,.65-2.56,1.3-3.84,1.95-.61-4.79-1.87-5.11-7.81-1.97,.07-5.18,5.39-5.09,7.89-7.84Z"/><path class="ad" d="M311.43,291.15c.92-1.22,1.84-2.44,3.1-4.11,2.05,3.61,3.85,6.78,5.65,9.95-.93,.63-1.85,1.27-2.78,1.9-1.99-2.58-3.98-5.16-5.97-7.74Z"/><path class="y" d="M328.87,328.16c1.28-.65,2.56-1.3,3.84-1.95,1.35,2.55,2.7,5.1,4.05,7.65-2.24,.04-4.49,.04-6.74,.13-3.37,.14-3.42-1.49-2.12-3.88,.32-.65,.65-1.3,.97-1.95Z"/><path class="p" d="M321.12,295.11c.81-1.13,1.39-2.76,2.48-3.25,1.28-.57,3-.15,4.53-.16-.19,1.25-.14,2.6-.64,3.71-.58,1.3-1.64,2.39-2.49,3.57,.36-2.94-.82-4.35-3.87-3.87Z"/><path class="p" d="M340.46,337.83c2.96-1.11,5.92-2.23,8.88-3.34l.73,1.21c-.57,.73-1.13,1.46-1.7,2.2-2.64-.02-5.27-.04-7.91-.07Z"/><path class="p" d="M347.35,339.89c-.63,.64-1.26,1.29-1.89,1.93,.63-.64,1.26-1.29,1.89-1.93Z"/><path class="p" d="M348.26,338.89c-.28,.31-.57,.61-.85,.92,.28-.31,.57-.61,.85-.92Z"/><path class="y" d="M509.7,287.28c-.7-.02-1.39-.04-2.09-.06,.7,.02,1.39,.04,2.09,.06Z"/><path class="l" d="M132.44,63.6l-1.17,1.48-.31-.31,1.48-1.17h0Z"/><path class="d" d="M340.64,65.5c-.78,7.7-1.51,15.41-2.42,23.1-.14,1.16-1.1,2.23-1.68,3.34-1.19-3.21-2.39-6.42-3.59-9.63,.05-3.05,.23-6.1,.14-9.15-.27-8.54-.96-9.15-9.3-11.91-3.23-1.07-6.18-2.98-9.26-4.51-.63-5.84,1.19-11.12,3.58-16.29,2.81-.07,5.63-.13,8.45-.2-1.83,6.68-.4,12.15,4.33,13.52,6.17,1.79,8.75,5.95,9.75,11.73Z"/><path class="t" d="M381.52,45.99c0,2.89,.01,5.79,.02,8.68-1.18,.36-2.35,1.01-3.53,1.02-8.07,.08-16.14,.02-24.2,0,.15-2.21,.3-4.42,.45-6.63,6.39-.66,12.78-1.29,19.16-1.99,2.71-.3,5.4-.72,8.1-1.08Z"/><path class="ad" d="M354.26,49.07c-.15,2.21-.3,4.42-.45,6.64-.91,.02-1.82,.03-2.74,.05l.03-6.67c-.98-4.82-1.97-9.63-2.95-14.45,.93-.1,1.87-.21,2.81-.32,.44,.35,.87,.71,1.31,1.06v-.09c.66,4.59,1.33,9.19,2,13.78Z"/><path class="ab" d="M354.78,34.25c-3.81-2.85-.62-6.3-.82-9.46,1.05,1.45,2.1,2.9,3.15,4.34l-.71,.98,6.88,.66q-1.02,3.91-8.5,3.47Z"/><path class="ab" d="M362.95,26.98l.51,.61-.9,.57c-.1-.26-.32-.55-.26-.76,.05-.19,.42-.28,.66-.43Z"/><path class="t" d="M351.1,49.08c0,2.22-.02,4.45-.02,6.68-1.3,.46-2.89,1.64-3.85,1.25-5.46-2.19-4.41,1.87-4.76,4.65-.6,1.28-1.21,2.57-1.81,3.85-1-5.77-3.58-9.94-9.75-11.73-4.73-1.37-6.16-6.85-4.33-13.52,2.45-3.45,5.58-5.54,10.03-4.99,2.84,3.27,4.71,6.89,6.05,11.13,.51,1.62,5.5,1.83,8.46,2.68Z"/><path class="w" d="M352.26,35.37c-.43-.35-.87-.71-1.31-1.06,.43,.35,.87,.71,1.31,1.06Z"/><path class="l" d="M95.43,139.52l1.22-1.53,.32,.32c-.51,.41-1.02,.81-1.53,1.22h0Z"/><path class="ae" d="M342.45,61.65c.35-2.78-.7-6.84,4.76-4.65,.96,.39,2.55-.8,3.85-1.25,.91-.02,1.83-.03,2.74-.05,8.07,.01,16.13,.07,24.2,0,1.18-.01,2.35-.66,3.53-1.02,.56,.35,1.12,.69,1.68,1.04,1.57,5.15,5.3,10.11,1.38,15.74-4.29-.03-8.57-.08-12.86-.08-5.02,0-10.04,.15-15.05-.02-4.03-.13-7.91-.36-8.73-5.98-.21-1.48-3.59-2.49-5.51-3.72Z"/><path class="ac" d="M303.47,195.76c9.46,.68,18.92,1.36,28.38,2.04-.02,10.29-.04,20.59-.05,30.88-.98,.73-1.97,1.46-2.95,2.2-2.5,.32-5,.65-7.5,.97-1.51-.32-3.05-1.01-4.53-.89-5.68,.48-11.34,1.22-17.01,1.87-.68-4.54-1.36-9.07-2.04-13.61l-.37-9.52c.78-1.18,2.08-2.3,2.22-3.56,.33-3,.12-6.07,.12-9.11,1.24-.43,2.49-.85,3.73-1.28Z"/><path class="aa" d="M299.74,197.04c0,3.04,.21,6.1-.12,9.11-.14,1.25-1.44,2.37-2.22,3.56-4.46,0-8.91,0-13.37,.01-4.7,1.01-2.97-4.08-3.87-4.81-2.43,1.99-4.34,3.57-6.25,5.14-3.11-.27-6.21-.55-9.32-.82-1.66-.42-3.31-.85-5.79-1.48,0-3.09,0-6.5,0-9.9,7.76,.99,10.98-5.18,8.19-13.96l-11.07,.33c-.05-1.66-.1-3.33-.15-4.99,.08-.29,.23-.54,.46-.73,4.47-.01,8.93-.02,13.4-.04,.92,0,1.85,0,2.77,.01l3.12,.73c6.88,.21,13.76,.41,20.64,.63,2.14,.07,4.27,.2,6.41,.3l-.05,2.22c-1.11,1.25-3.06,2.42-3.16,3.75-.29,3.62,.2,7.31,.38,10.97Z"/><path class="v" d="M302.57,180.11c-2.14-.1-4.27-.23-6.41-.3-6.88-.22-13.76-.42-20.64-.63,4.23-6.54,6.32-13.68,5.67-21.48-.34-4.06,.97-5.68,5.35-5.77,7.47-.16,14.93-1.09,22.52-1.71,.19-2.07,.31-3.49,.44-4.9,7.44,.11,9.91,2.85,7.85,8.72-5.08-.22-5.59,2.9-5.01,6.83-.31,3.55-.62,7.11-.93,10.66-2.95,2.87-5.91,5.73-8.86,8.6Z"/><path class="r" d="M291.76,69.41c.66,1.64,1.63,3.22,1.92,4.92,.85,5.1,1.42,10.24,2.1,15.37-3.06,.82-6.12,1.64-9.18,2.46-1.44,.16-2.89,.32-4.34,.48l-3.27-.22-3.22-1.26c-4.05-2.01-8.1-4.03-12.15-6.04-1.53-2.3-3.07-4.61-4.6-6.91l-2.92-5.89c-.06-1.56-.14-3.11-.18-4.67-.26-8.87,5.83-14.13,15.67-13.54,1.13,.49,2.25,.97,2.15,.93-1.1,3.49-3.03,6.73-2.92,9.89,.17,4.88,6.14,10.16,10.81,11.22,5.86,1.33,7.96-2.69,10.15-6.74Z"/><path class="b" d="M339.65,236.75c-.36,.88-.72,1.75-1.08,2.63-1.96-.21-3.92-.43-5.88-.64-.04-3.3-.07-6.61-.11-9.91-.05-10.4-.11-20.81-.16-31.21,.11-4.84,.22-9.67,.33-14.51,5.16,.41,10.32,.81,15.48,1.22,0,4.13,0,8.26,0,12.39-1.95,9.44-3.89,18.88-5.84,28.32-.62,1.24-1.54,2.43-1.79,3.75-.51,2.62-.66,5.32-.95,7.98Z"/><path class="u" d="M309.51,145.31c-.13,1.42-.26,2.83-.44,4.9-7.59,.62-15.05,1.56-22.52,1.71-4.38,.09-5.69,1.71-5.35,5.77,.65,7.8-1.45,14.94-5.67,21.48-1.04-.24-2.08-.49-3.12-.73,1.63-6.98,3.79-13.88,4.74-20.95,.79-5.92,.18-12.02,.19-18.05,2.73,.35,5.46,.71,8.94,1.15,0-4.23,0-7.57,0-10.9,.08,3.97,0,7.95,.3,11.91,.14,1.87,.99,3.69,1.52,5.53,.63-1,1.77-1.99,1.8-3.02,.13-4.13-.08-8.26-.16-12.4l.42-.05c.25,1.39,.85,2.82,.68,4.15-.6,4.65,2.03,5.05,5.53,4.54,2.63-.39,5.25-.77,8.17-1.2v-7.62l.11-4.91c.44,6.41,.88,12.83,1.42,20.63l1.6-3.22,1.64,.29,.21,.96Z"/><path class="b" d="M291.76,69.41c-2.18,4.05-4.29,8.07-10.15,6.74-4.67-1.06-10.64-6.34-10.81-11.22-.11-3.17,1.81-6.4,2.92-9.89,.11,.05-1.02-.44-2.15-.93,8.85,.71,18.14,5.66,20.18,15.3Z"/><path class="e" d="M286.59,92.16c3.06-.82,6.12-1.64,9.18-2.46,2,1.31,3.99,2.63,5.99,3.94,.27,2.67,.55,5.33,.82,8-.01,1.83-.02,3.66-.03,5.49l-.15,.23c-4.78-.32-9.56-.64-14.35-.95-.49-4.75-.98-9.5-1.47-14.25Z"/><path class="ae" d="M336.56,96.62c2.79,.56,5.64,.91,8.35,1.74,3.96,1.23,4.65,3.82,2,6.93-2.53,2.97-5.34,5-9.64,3.2-2.15-.9-4.61-1.05-7.22-1.61-.12,2.38-.23,4.44-.34,6.49,.51-4.36-4.44-8.74,.03-13.09,.31,.06,.62,.1,.93,.13,.33-.57,.66-1.15,.98-1.72,.38-.39,.76-.79,1.15-1.18l.95-.75,2.8-.15Z"/><path class="e" d="M304.31,94.53c6.39-2.16,12.85,1.09,14.58,7.46,.19,.71-.44,1.65-.69,2.49-1.81,.28-4.26-.1-5.31,.94-4.42,4.39-4.82,.84-5.69-2.46-.31-1.19-1-2.28-1.52-3.41-.46-1.67-.91-3.34-1.37-5.01Z"/><path class="q" d="M305.68,99.54c.52,1.13,1.2,2.22,1.52,3.41,.87,3.29,1.27,6.85,5.69,2.46,1.05-1.04,3.5-.67,5.31-.94,.61,8.35-1.81,11.34-9.35,10.65-.53-.05-1.11,.52-1.67,.8-.5-.08-1.01-.16-1.52-.24-.34-1.17-1.01-2.36-.96-3.51,.19-4.21,.63-8.42,.98-12.62Z"/><path class="ac" d="M305.66,115.68c.51,.08,1.01,.16,1.52,.24,1.11,4.58,1.75,9.36,3.47,13.7,1.43,3.61,2.39,6.81,.57,10.42-.71,1.4-1.28,2.87-1.91,4.31-.55-.1-1.09-.2-1.64-.29,0-6.63,0-13.27,0-19.91l-1.39-.18-1.64,2.67c-.04,1.64-.07,3.27-.11,4.91,.06-2.87,.12-5.73,.17-8.6,.32-2.42,.63-4.85,.95-7.27Z"/><path class="w" d="M256.1,72.33c.97,1.96,1.94,3.93,2.92,5.89,.11,2.23,.22,4.45,.33,6.68-1.41-.31-2.82-.63-4.23-.94-5.29-1.84-4.77-5.54-3.1-9.62l.04-.04c.71-.13,1.41-.27,2.12-.4,.64-.52,1.29-1.05,1.93-1.57Z"/><path class="w" d="M305.66,115.68c-.32,2.42-.63,4.85-.95,7.27-1.07-2.81-2.14-5.63-3.22-8.44,.31-2.38,.61-4.76,.92-7.15l.15-.23c.01-1.83,.02-3.66,.03-5.49-.27-2.67-.55-5.33-.82-8,.47-.06,.93-.11,1.4-.17h-.11c.42,.34,.83,.7,1.25,1.05,.46,1.67,.92,3.34,1.37,5.02-.35,4.21-.78,8.41-.98,12.62-.05,1.15,.62,2.34,.96,3.51Z"/><path class="t" d="M336.56,96.62c-.93,.05-1.87,.1-2.8,.15-.32,.25-.63,.5-.95,.75-.38,.39-.76,.79-1.15,1.18-.33,.57-.66,1.15-.98,1.72-.31-.03-.63-.07-.93-.13,4.06-5.46,1.07-12.17,3.21-17.97,1.2,3.21,2.39,6.42,3.59,9.63,0,1.56,.01,3.11,.02,4.67Z"/><path class="t" d="M299.74,197.04c-.18-3.66-.67-7.34-.38-10.97,.11-1.33,2.05-2.5,3.16-3.75,.32,4.48,.63,8.96,.95,13.44-1.24,.43-2.49,.85-3.73,1.28Z"/><path class="u" d="M311.43,171.51c.31-3.55,.62-7.11,.93-10.66,1.46-.33,2.92-.66,4.38-.99-.78,4.33,1.15,9.9-5.31,11.65Z"/><path class="l" d="M321.24,112.83v18.15l-1.54,.05v-17.94l1.54-.25Z"/><path class="a`" d="M332.43,197.61c.05,10.4,.11,20.81,.16,31.21-.28,.03-.54-.02-.79-.14,.02-10.29,.04-20.59,.05-30.88,.19-.08,.38-.15,.58-.19Z"/><path class="s" d="M316.73,159.86c-1.46,.33-2.92,.66-4.38,.99-.58-3.93-.07-7.05,5.01-6.83-.21,1.95-.42,3.89-.63,5.84Z"/><path class="b" d="M254.17,73.89c-.71,.13-1.41,.27-2.12,.4-.35-.13-.45-.38-.29-.72,.8,.11,1.6,.22,2.4,.32Z"/><path class="e" d="M303.05,93.47h0Z"/><path class="b" d="M264.59,209.22c3.11,.27,6.21,.55,9.31,.82,.32,4.66-.73,10.09,1.32,13.8,2.7,4.88,1.89,9.1,1.25,13.76-1.29,7.49-2.58,14.99-3.87,22.48-1.05,.5-2.1,1.01-2.85,1.37-1.21-2.03-2.17-3.65-3.13-5.27-.73-6.75-1.46-13.5-2.2-20.24-.01-.1-.23-.26-.29-.24-.14,.06-.23,.21-.34,.33-.98-7.79-1.92-15.59-2.98-23.38-.43-3.16,1.56-3.36,3.78-3.44Z"/><path class="t" d="M255.92,184.2l11.07-.33c2.78,8.78-.43,14.96-8.19,13.96-.98-1.8-2.49-3.51-2.83-5.42-.47-2.66-.07-5.47-.05-8.22Z"/><path class="c" d="M255.16,144.33c-.38-.36-.76-.71-1.14-1.07-.35-7.12-.7-14.23-1.04-21.35,0-1.43,0-2.86,0-5.53-1.17,1.66-1.51,2.14-1.86,2.63-1.01,.03-2.02,.05-3.03,.08-1.58-.39-3.17-.77-4.75-1.16-.01-3.56-.5-7.21,.12-10.65,.42-2.32,2.41-4.35,3.69-6.51l2.02-.04c.88,.23,1.76,.45,2.65,.68-.33,6.81,1.4,10.28,12.71,11l1.12,1.62c-.63,2.59-1.14,5.22-1.92,7.77-1.55,5.09-3.13,10.19-4.95,15.19-.93,2.55-2.4,4.9-3.62,7.33Z"/><path class="o" d="M243.34,117.93c1.58,.39,3.17,.77,4.75,1.16-.3,.63-.6,1.25-.91,1.88-.65,.29-1.3,.58-1.94,.86-5.04-1.28-10.1-2.54-15.13-3.87-1.13-.3-2.18-.86-3.27-1.3,3.55-.18,7.1-.35,10.65-.53,1.95,.6,3.9,1.19,5.86,1.79Z"/><path class="l" d="M245.24,121.84c.65-.29,1.3-.58,1.94-.86,.19,1.35,.92,2.98,.42,3.99-.61,1.23-2.7,2.95-3.38,2.66-1.53-.64-2.58-2.41-3.83-3.72,1.62-.69,3.23-1.38,4.85-2.07Z"/><path class="o" d="M251.11,119.02c.34-.49,.69-.98,1.86-2.63,0,2.67,0,4.1,0,5.53-.62-.97-1.24-1.93-1.86-2.9Z"/><path class="l" d="M251.07,143.37l-1.17,1.51c-.26-.49-.51-.98-.77-1.46,.65-.02,1.29-.03,1.94-.05Z"/><path class="s" d="M255.16,144.33c1.23-2.44,2.7-4.79,3.62-7.33,1.82-5,3.39-10.09,4.95-15.19,.78-2.55,1.29-5.18,1.92-7.77,2.97,.07,5.95,.14,8.93,.2,.61,6.88,1.18,13.77,1.84,20.64,.15,1.54,.61,3.04,.92,4.56,0,6.02,.6,12.13-.19,18.05-.95,7.07-3.1,13.98-4.74,20.95-.92,0-1.85,0-2.77-.01,.69-6.21,1.38-12.42,2.04-18.38-3.63,2.39-6.54,4.94-9.93,6.41-5.62,2.43-8.04-3.06-11.64-5.57,.08-2.26,.17-4.52,.25-6.78,1.93,.81,3.88,1.56,5.77,2.45,7.31,3.43,11.68,1.98,16.39-5.89-4.99-4.61-11.39-4.73-17.59-5.4,.03-.32,.11-.63,.22-.94Z"/><path class="u" d="M250.11,160.9c3.6,2.51,6.02,8,11.64,5.57,3.39-1.46,6.3-4.02,9.93-6.41-.66,5.95-1.35,12.17-2.04,18.38-4.47,.01-8.93,.03-13.4,.04-.13-.28-.18-.68-.4-.84-7.03-4.91-8.01-7.77-5.73-16.74Z"/><path class="v" d="M254.93,145.27c6.21,.66,12.6,.79,17.59,5.4-4.72,7.87-9.09,9.32-16.39,5.89-1.89-.89-3.85-1.63-5.77-2.45-1.72-3.4-.75-5.29,4.57-8.85Z"/><path class="l" d="M245.39,154.4c.07-1.23,.13-2.46,.2-3.68l1.07,.02v3.74l-1.27-.07Z"/><path class="l" d="M245.52,166.16c.05-.94,.1-1.87,.15-2.81l1.13,.06-.13,2.82-1.15-.07Z"/><path class="l" d="M248.76,175.19c-.12,.27-.18,.69-.37,.76-.19,.08-.52-.19-.79-.31,.12-.27,.18-.69,.37-.76,.19-.08,.52,.19,.79,.31Z"/><path class="l" d="M241.35,149.19c.39-.49,.78-.99,1.17-1.48l.31,.31c-.49,.39-.99,.78-1.48,1.17h0Z"/><path class="n" d="M249.17,100.74c-.67,.01-1.34,.02-2.02,.04-1.87-.12-3.74-.24-5.61-.36-.13-.63-.25-1.26-.38-1.89,.14-.26,.17-.53,.08-.81,4.62-4.59,9.23-9.17,13.85-13.76,1.41,.31,2.82,.63,4.23,.94,1.18,1.59,2.35,3.18,3.46,4.68-1.97,1.22-3.4,2.1-4.84,2.99-2.07,2.6-4.15,5.21-6.22,7.81l-2.56,.36Z"/><path class="d" d="M241.55,100.41c1.87,.12,3.74,.24,5.61,.36-1.29,2.16-3.27,4.19-3.69,6.51-.62,3.44-.14,7.09-.12,10.65-1.95-.6-3.9-1.2-5.86-1.79,.27-3.04,.73-6.08,.74-9.12,0-1.76-.73-3.53-1.37-6.34,.83-.56,2.62-1.76,4.4-2.96,.08,.28,.05,.55-.08,.81-.39,.45-.78,.91-1.18,1.36l1.55,.53Z"/><path class="l" d="M194.68,43.17l.4,.23c-.14-.07-.27-.14-.41-.22h0Z"/><path class="b" d="M385.22,212.43c-.68,7.33-1.35,14.66-2.03,21.99,0,0-.18,.39-.18,.39-.23,.9-.47,1.81-.71,2.71l-.07,.32c-2.22-.03-4.45-.06-6.67-.09-.39-2.58-.82-5.16-1.15-7.75-.3-2.29-.48-4.6-.72-6.9-1.42-10.17-2.84-20.34-4.26-30.5l-1.38-10.08c2.32-.1,4.63-.2,6.96-.31,6.9,.03,8.06,1.23,8.45,7.96,.08,1.28,1.19,2.49,1.82,3.74,.07,.23,.16,.44,.26,.65v16.94l-.33,.92Z"/><path class="n" d="M368.06,182.52c.46,3.36,.92,6.72,1.38,10.08-7.07,1.37-14.13,2.73-21.2,4.1,0-4.13,0-8.26,0-12.39,1.74-.12,3.48-.24,5.56-.38,.73-4.09,1.49-8.16,2.18-12.24,.62-3.71,1.15-7.44,1.71-11.16l2.2,.09c1.36,6.16,2.89,12.29,4.02,18.5,.48,2.64,1.74,3.52,4.16,3.39Z"/><path class="ae" d="M385.59,79.73c1.21,2.66,2.41,5.33,3.62,7.99-.8,1.48-1.44,4.13-2.43,4.27-8.02,1.13-15.31,7.78-24.2,3.06-2.56-1.36-5.86-1.3-8.81-1.93-4.39-.94-6.06-3.65-5.51-8.08,.28-2.22,.05-4.51,.05-6.81,.42,.11,.85,.08,.97,.26,6.15,9.74,12.37,11.97,23.72,8.47,4.73-1.46,10.63-.91,12.59-7.22Z"/><path class="ac" d="M385.56,211.51c0-5.65,0-11.29-.01-16.94,4.16,.54,8.33,1.07,12.49,1.6-2.16,6.74-6.16,11.98-12.48,15.34Z"/><path class="n" d="M398.04,196.17c-4.16-.53-8.33-1.06-12.49-1.6-.11-.21-.19-.43-.26-.66,.06-1.28,.13-2.56,.19-3.83,4.72,.45,9.44,.9,14.78,1.42l-2.22,4.67Z"/><path class="ab" d="M356.43,108.78c1.13,2.16,2.26,4.32,3.82,7.31,4.68,0,10.13,.12,15.57-.03,5.24-.15,10.48-.59,16.33-.93-.71,3.48-1.03,6.33-1.89,9-2.26,7.04-8.62,6.78-14.25,7.5-2.71,.35-5.5,.06-8.25,.06-7.27,0-10.2-2.33-11.58-9.39-.43-2.2-.57-4.46-.76-6.7-.18-2.07-.26-4.15-.38-6.23l1.38-.58Z"/><path class="ab" d="M400.84,106.33c-.65,2.64-1.29,5.28-1.94,7.92-.95-2.08-1.91-4.16-2.86-6.25,1.6-.56,3.2-1.11,4.8-1.67Z"/><path class="k" d="M266.62,256.19c.96,1.62,1.92,3.23,3.13,5.27,.75-.36,1.8-.87,2.85-1.37,1.43,2.52,2.86,5.03,4.11,7.24,7.99-4.49,13.6-9.61,11.46-19.04,.6,1.48,1.52,2.91,1.74,4.44,.54,3.74,.75,7.53,1.1,11.31-1.28,1.16-2.65,2.23-3.81,3.5-1.82,2-3.48,4.14-5.21,6.22h-4.86c.91,2.03,1.54,3.41,2.16,4.79-3.59-1.02-7.18-2.03-10.78-3.05,6.39-1.42,6.8-2.12,5.28-7.15-1.33-4.41-4.62-1.98-7.13-2.32-.01-3.28-.03-6.55-.04-9.83Z"/><path class="p" d="M488.33,240.62c-2.75-.08-6.09,.72-5.82-3.89,1.38,.19,2.76,.39,4.16,.59-.39-3.46-.77-6.84-1.14-10.21,3.13,4.05,2.92,8.8,2.79,13.52h0Z"/><path class="p" d="M481.59,236.58c-1.02,.69-2.04,1.38-3.06,2.07-1.97-2.15-3.95-4.3-5.92-6.45l1.17-1.36c2.6,1.91,5.21,3.83,7.81,5.74Z"/><path class="j" d="M382.31,237.52c.24-.9,.47-1.81,.71-2.71,.43,.78,.86,1.55,1.29,2.33-.67,.13-1.33,.25-2,.38Z"/><path class="p" d="M488.33,240.62c.49,.39,.99,.78,1.48,1.16l-.31,.31c-.39-.49-.77-.99-1.16-1.48h0Z"/><path class="b" d="M291,264.03c-.34-3.77-.56-7.56-1.1-11.31-.22-1.53-1.14-2.96-1.74-4.44-.68-4.15-1.36-8.31-2.04-12.46-.7-8.7-1.4-17.41-2.1-26.11,4.46,0,8.92,0,13.37-.01,.12,3.17,.24,6.34,.37,9.52,0,1.92,.07,3.85-.03,5.77-.54,10.9-1.14,21.8-1.61,32.71-.02,.44,1.02,.92,1.56,1.38-1.66,1.67-3.31,3.34-4.97,5.01-.57-.02-1.15-.05-1.72-.07Z"/><path class="j" d="M373.7,223.1c.24,2.3,.42,4.61,.72,6.9,.33,2.59,.76,5.17,1.15,7.75-.29,.35-.58,.69-.86,1.04-11.51-3.73-23.17-4.84-35.05-2.04,.3-2.66,.44-5.36,.95-7.98,.26-1.32,1.17-2.5,1.79-3.75,1.33,1.29,2.67,3.69,4,3.68,7.56-.02,15.14-.47,22.68-1.09,2.4-.2,4.82-1.24,4.62-4.52Z"/><path class="j" d="M297.69,259.09c-.54-.46-1.58-.95-1.56-1.38,.47-10.91,1.07-21.81,1.61-32.71,.09-1.92,.02-3.85,.03-5.77,.68,4.54,1.36,9.07,2.04,13.61,0,5.05,0,10.09,0,15.78,7.08-5.01,13.29-9.41,19.5-13.8,3.59-.31,7.98,1.33,9.54-3.92,.98-.73,1.97-1.46,2.95-2.2,.25,.12,.52,.17,.79,.14,.03,3.3,.07,6.61,.11,9.91-.54,.08-1.08,.16-1.61,.23-5.27-.63-10.15,.2-14.57,3.4-4.78,3.45-9.9,6.45-14.48,10.13-1.95,1.57-2.92,4.36-4.33,6.59Z"/><path class="f" d="M331.08,238.97c.54-.08,1.08-.16,1.61-.23,1.96,.21,3.92,.43,5.88,.64,2.23,11.39,1.94,11.65-8.84,11.88-3.09,.07-6.19-.25-10.39-.43,4.58-4.62,8.16-8.24,11.74-11.86Z"/><path class="f" d="M374.71,238.79c.29-.35,.58-.69,.86-1.04,2.22,.03,4.45,.06,6.67,.09,.18,.62,.53,1.24,.53,1.86-.04,3.12,.97,8.04-.52,9-3.46,2.23-8.17,2.76-12.52-.08,1.71-3.38,3.35-6.61,4.98-9.84Z"/><path class="f" d="M291,264.03c.57,.02,1.15,.04,1.72,.07-.05,.48-.09,.96-.14,1.43-1.97,2.24-3.77,4.69-6,6.65-1.12,.99-3.04,1.07-4.6,1.57,1.73-2.08,3.39-4.22,5.21-6.22,1.15-1.27,2.53-2.34,3.81-3.5Z"/><path class="a`" d="M319.3,234.8c-6.21,4.4-12.42,8.79-19.5,13.8,0-5.68,0-10.73,0-15.78,5.67-.64,11.33-1.39,17.01-1.87,1.47-.12,3.02,.57,4.52,.89-.68,.98-1.36,1.97-2.04,2.95Z"/><path class="y" d="M319.3,234.8c.68-.98,1.36-1.97,2.04-2.95,2.5-.32,5-.65,7.5-.97-1.56,5.25-5.95,3.61-9.54,3.92Z"/><path class="ac" d="M284.03,209.72c.7,8.7,1.4,17.41,2.1,26.11-3.22,.59-6.44,1.19-9.66,1.78,.64-4.66,1.45-8.89-1.25-13.76-2.05-3.71-1-9.14-1.32-13.8,1.92-1.57,3.83-3.14,6.26-5.14,.9,.73-.83,5.82,3.87,4.81Z"/><path class="e" d="M278.99,92.43c1.09,.07,2.18,.14,3.27,.22,.63,4.59,1.27,9.18,1.9,13.76-3.62-.66-7.27-1.19-10.85-2.01-2.12-.49-4.9-.86-6.03-2.32-2.07-2.68-3.13-6.13-4.61-9.26,5.44-.13,10.88-.26,16.33-.39Z"/><path class="w" d="M284.16,106.41c-.63-4.59-1.27-9.18-1.9-13.76,1.45-.16,2.89-.33,4.34-.48,.49,4.75,.98,9.5,1.47,14.25-.32,2.59-.64,5.18-.97,7.77l-.11,.17c-1.44,.03-2.89,.07-4.34,.1-.2,0-.34-.09-.44-.26,.65-2.6,1.3-5.19,1.94-7.79Z"/><path class="b" d="M278.99,92.43c-5.44,.13-10.88,.26-16.32,.39-1.57-.08-3.14-.17-4.71-.25l4.84-2.99c-1.11-1.5-2.28-3.09-3.46-4.68-.11-2.23-.22-4.45-.33-6.68,1.53,2.3,3.07,4.61,4.6,6.91,1.76,1.93-.49,6.46,4.09,6.5,2.68,.02,5.37-.3,8.05-.46,1.07,.42,2.15,.84,3.22,1.26Z"/><path class="ae" d="M275.77,91.16c-2.69,.16-5.37,.48-8.05,.46-4.58-.04-2.33-4.57-4.09-6.5,4.05,2.01,8.1,4.03,12.15,6.04Z"/><path class="ac" d="M373.7,223.1c.21,3.28-2.22,4.32-4.62,4.52-7.54,.62-15.12,1.07-22.68,1.09-1.33,0-2.67-2.39-4-3.68,1.95-9.44,3.89-18.88,5.84-28.32,7.07-1.37,14.13-2.73,21.2-4.1,1.42,10.16,2.84,20.33,4.26,30.5Z"/><path class="v" d="M301.49,114.51c1.07,2.81,2.14,5.62,3.22,8.44-.06,2.87-.11,5.73-.17,8.6,0,2.55,0,5.1,0,7.62-2.92,.43-5.54,.82-8.17,1.2-3.5,.51-6.13,.12-5.53-4.54,.17-1.33-.43-2.76-.68-4.15-1.06-5.78-2.11-11.55-3.17-17.33l.11-.17c4.8,.11,9.6,.22,14.4,.33Z"/><path class="v" d="M277.34,139.45c-.32-1.52-.77-3.03-.92-4.56-.66-6.88-1.23-13.76-1.84-20.64,1.23-.08,2.45-.16,3.68-.24,1.32,.06,2.64,.12,3.96,.19,.1,.17,.24,.26,.43,.25,1.21,5.08,2.42,10.17,3.63,15.25v10.9c-3.48-.45-6.21-.8-8.94-1.15Z"/><path class="aa" d="M286.28,129.7c-1.21-5.09-2.42-10.17-3.63-15.25,1.45-.03,2.9-.07,4.34-.1,1.06,5.78,2.11,11.55,3.17,17.33l-.42,.05c-.56,1.14-1.54,2.25-1.59,3.42-.19,3.99-.06,8-.05,12-.53-1.84-1.38-3.66-1.52-5.53-.3-3.95-.22-7.94-.3-11.91Z"/><path class="w" d="M304.64,126.64l1.64-2.67,1.39,.18c0,6.64,0,13.27,0,19.91-.32,.64-.64,1.29-1.6,3.22-.54-7.81-.98-14.22-1.42-20.63Z"/><path class="w" d="M288.09,147.14c0-4-.14-8.01,.05-12,.06-1.16,1.04-2.28,1.59-3.42,.08,4.13,.29,8.27,.16,12.4-.03,1.02-1.17,2.01-1.8,3.02Z"/><path class="q" d="M301.49,114.51c-4.8-.11-9.6-.22-14.4-.33,.32-2.59,.64-5.18,.97-7.78,4.78,.32,9.57,.64,14.35,.95-.31,2.38-.61,4.77-.92,7.15Z"/><path class="q" d="M302.59,101.64c-.01,1.83-.02,3.66-.03,5.49,.01-1.83,.02-3.66,.03-5.49Z"/><path class="ab" d="M330.68,100.41c.33-.57,.66-1.15,.98-1.72-.33,.57-.66,1.15-.98,1.72Z"/><path class="ab" d="M332.81,97.52c.32-.25,.63-.5,.95-.75-.32,.25-.63,.5-.95,.75Z"/><path class="a`" d="M276.47,237.61c3.22-.59,6.44-1.19,9.66-1.78,.68,4.16,1.36,8.31,2.04,12.47,2.14,9.42-3.47,14.55-11.46,19.04-1.25-2.21-2.68-4.72-4.11-7.24,1.29-7.49,2.58-14.99,3.87-22.48Z"/><path class="q" d="M282.21,114.2c-1.32-.06-2.64-.12-3.96-.19-.56-.63-1.11-1.8-1.68-1.81-4.01-.06-8.03,.11-12.04,.21-11.32-.72-13.04-4.19-12.71-11-.03-.35-.05-.7-.08-1.05,2.07-2.6,4.15-5.2,6.22-7.81,1.57,.08,3.14,.16,4.71,.25,1.48,3.13,2.55,6.58,4.61,9.26,1.13,1.47,3.91,1.83,6.03,2.32,3.58,.83,7.23,1.36,10.85,2.01-.65,2.6-1.3,5.19-1.94,7.79Z"/><path class="r" d="M264.53,112.42c4.02-.1,8.03-.27,12.04-.21,.57,0,1.12,1.17,1.68,1.81-1.23,.08-2.46,.16-3.68,.24-2.97-.07-5.95-.13-8.92-.2-.37-.54-.74-1.08-1.12-1.63Z"/><path class="d" d="M251.74,100.37c.03,.35,.06,.7,.08,1.05-.88-.23-1.77-.46-2.65-.68,.86-.12,1.71-.24,2.57-.36Z"/><path class="b" d="M241.55,100.41l-1.55-.53c.39-.45,.78-.91,1.18-1.36,.13,.63,.25,1.26,.38,1.89Z"/></svg>