<?xml version="1.0" encoding="UTF-8"?><svg id="a" xmlns="http://www.w3.org/2000/svg" viewBox="0 0 448.4 58.21"><defs><style>.b{fill:#fff;}.c{fill:#eddcd2;}.d{fill:#231f20;}.e{fill:#616d38;}.f{stroke:#231f20;stroke-miterlimit:10;stroke-width:.5px;}</style></defs><path class="d" d="M46.01,57.33h-3.56c-.32-.63-.47-3.48-.55-8.86-1.98,3.8-6.33,9.49-17.87,9.49C8.14,57.96,0,45.86,0,30.13,0,13.61,8.7,1.19,24.9,1.19c11.94,0,19.84,6.25,21.58,16.44h-4.27c-2.37-7.83-7.83-12.49-17.47-12.49C10.91,5.14,4.58,15.89,4.58,29.89c0,12.65,6.09,24.11,19.61,24.11s17.71-9.01,17.71-21.27v-.63H24.03v-3.95h21.98v29.17h0Z"/><path class="d" d="M176.05,2.62h18.34c15.18,0,25.7,10.59,25.7,27.2s-10.28,28.15-25.77,28.15h-18.26V2.62h-.01Zm4.27,51.39h13.36c14.63,0,21.82-10.28,21.82-23.96,0-12.17-6.48-23.48-21.82-23.48h-13.36V54.01Z"/><g><path class="d" d="M229.86,1.34h8.15V23.98h27.38V1.34h8.15V56.26h-8.15V30.88h-27.38v25.37h-8.15V1.34Z"/><path class="d" d="M296.28,1.34V56.26h-8.15V1.34h8.15Z"/><path class="d" d="M310.9,1.34h8.08V27.82c4-4.23,17.44-17.77,25.77-26.48h10.04l-23.32,23.09,24.42,31.82h-9.86l-20.26-26.54-6.79,6.2v20.33h-8.08V1.34Z"/><path class="d" d="M397.76,30.96h-27.11v18.39h29.8l-1.03,6.9h-36.74V1.34h36.36v6.9h-28.39v15.82h27.11v6.9h0Z"/><path class="d" d="M415.07,40.82c1.45,6.38,5.84,9.72,13.5,9.72,8.14,0,11.41-3.73,11.41-8.7,0-5.31-2.7-8.18-13.4-10.75-13.32-3.21-17.66-7.83-17.66-15.5,0-8.42,6.23-15.04,18.63-15.04,13.36,0,18.82,7.61,19.57,14.98h-8.27c-.91-4.6-3.74-8.55-11.57-8.55-6.33,0-9.93,2.82-9.93,7.8s2.95,6.84,12.43,9.12c15.72,3.8,18.62,9.87,18.62,17.05,0,9.08-6.76,16.01-20.39,16.01s-20.05-7.42-21.22-16.14h8.28Z"/></g><g><path class="f" d="M81.9,.26c16.08,0,28.92,13.04,28.85,29.26-.07,15.57-13.33,28.67-29.19,28.44-16.94-.25-29.14-14.04-28.63-30.2C53.36,14.21,64.77,.25,81.9,.26Zm-13.69,27.05c-2.89,4.38-5.64,8.76-8.64,12.96-1.18,1.66-.94,2.77,.17,4.25,6.83,9.08,15.87,12.87,27.05,11.01,7.9-1.32,13.86-5.77,18.07-12.54,.29-.47,.4-1.42,.12-1.84-4.06-6.24-8.19-12.42-12.38-18.73-.81,1.23-1.42,2.46-2.31,3.44-2.14,2.34-2.12,4.39-.04,6.88,2,2.4,3.56,5.17,5.23,7.83,.24,.39-.03,1.09-.07,1.65-.54-.18-1.11-.3-1.62-.55-.23-.11-.34-.46-.5-.7-3.42-5.13-6.85-10.27-10.28-15.4-.33-.5-.7-.98-.96-1.35-1.19,1.12-2.16,2.76-3.31,2.91-1.23,.15-2.63-1.11-3.96-1.76-1.97,2.33-4.17,2.97-6.58,1.94h.01Zm-10.9,12.62c.46-.66,.8-1.12,1.12-1.6,5.45-8.27,10.89-16.54,16.34-24.81,1.18-1.79,1.69-1.8,2.86-.05,1.55,2.33,3.06,4.68,4.61,7,1.47,2.21,2.96,4.4,4.6,6.82,1.55-2.31,2.93-4.37,4.32-6.44,1.26-1.88,1.72-1.9,2.96-.03,3.8,5.73,7.58,11.46,11.38,17.19,.32,.49,.69,.95,1.1,1.52,4.95-10.46,1.37-24.41-7.92-31.56C88.23-.08,74.17,.12,64.38,8.5c-10.13,8.67-11.54,22.13-7.05,31.42h-.02Zm18.93-24.75l-6.7,10.22,1.76,.91c.68-.91,1.32-1.66,1.84-2.5,.74-1.19,1.56-1.43,2.71-.53,.76,.59,1.63,1.06,2.51,1.63,.63-.76,1.25-1.38,1.72-2.11,.24-.37,.45-1.06,.27-1.35-1.27-2.07-2.65-4.07-4.11-6.28h0Z"/><path class="e" d="M68.21,27.31c2.41,1.03,4.61,.39,6.58-1.94,1.33,.65,2.73,1.91,3.96,1.76,1.15-.14,2.11-1.78,3.31-2.91,.26,.37,.62,.85,.96,1.35,3.43,5.13,6.85,10.26,10.28,15.4,.16,.24,.27,.59,.5,.7,.51,.25,1.08,.37,1.62,.55,.03-.56,.31-1.27,.07-1.65-1.66-2.66-3.23-5.43-5.23-7.83-2.08-2.49-2.09-4.54,.04-6.88,.89-.97,1.5-2.2,2.31-3.44,4.19,6.31,8.32,12.49,12.38,18.73,.27,.42,.17,1.36-.12,1.84-4.21,6.77-10.17,11.22-18.07,12.54-11.18,1.86-20.22-1.92-27.05-11.01-1.11-1.48-1.34-2.59-.17-4.25,2.99-4.21,5.74-8.59,8.64-12.96h-.01Z"/><path class="c" d="M57.31,39.93c-4.49-9.29-3.08-22.75,7.05-31.42C74.15,.13,88.21-.08,98.66,7.97c9.3,7.16,12.88,21.1,7.92,31.56-.41-.57-.78-1.03-1.1-1.52-3.8-5.73-7.58-11.46-11.38-17.19-1.24-1.87-1.7-1.85-2.96,.03-1.38,2.06-2.77,4.13-4.32,6.44-1.63-2.42-3.13-4.61-4.6-6.82-1.55-2.33-3.06-4.68-4.61-7-1.16-1.75-1.68-1.74-2.86,.05-5.45,8.27-10.89,16.54-16.34,24.81-.32,.48-.66,.94-1.12,1.6h.02Z"/><path class="b" d="M76.24,15.17c1.47,2.21,2.84,4.21,4.11,6.28,.18,.3-.03,.98-.27,1.35-.47,.72-1.09,1.35-1.72,2.11-.89-.57-1.75-1.04-2.51-1.63-1.16-.9-1.97-.66-2.71,.53-.52,.83-1.16,1.59-1.84,2.5l-1.76-.91,6.7-10.22h0Z"/><path class="d" d="M81.89,0l.02,4c6.65,0,12.89,2.59,17.55,7.28,4.74,4.76,7.33,11.14,7.3,17.97-.06,13.26-11.41,24.46-24.78,24.46h-.36c-6.86-.1-13.16-2.8-17.74-7.6-4.7-4.92-7.17-11.48-6.95-18.48,.36-11.36,10-23.63,24.95-23.63V0m0,0c-17.12,0-28.52,13.96-28.95,27.5-.51,16.16,11.69,29.95,28.63,30.2h.41c15.67,0,28.71-13.01,28.78-28.44C110.83,13.04,97.99,0,81.91,0h-.03Z"/></g><path class="d" d="M143.53,.26l.02,4c6.65,0,12.89,2.59,17.55,7.28,4.74,4.76,7.33,11.14,7.3,17.97-.06,13.26-11.41,24.46-24.78,24.46h-.35c-6.86-.1-13.16-2.8-17.74-7.6-4.7-4.92-7.17-11.48-6.95-18.48,.36-11.36,10-23.63,24.95-23.63V.26m0,0c-17.12,0-28.52,13.96-28.95,27.5-.51,16.16,11.69,29.95,28.63,30.2h.41c15.67,0,28.71-13.01,28.78-28.44,.07-16.22-12.77-29.25-28.85-29.26h-.02Z"/></svg>