<?xml version="1.0" encoding="UTF-8"?><svg id="a" xmlns="http://www.w3.org/2000/svg" viewBox="0 0 225.33 81.81"><defs><style>.b{fill:#fff;}.c{fill:#eddcd2;}.d{fill:#231f20;}.e{fill:#616d38;}</style></defs><path d="M41.1,0c22.8,.02,41.01,18.49,40.9,41.49-.1,22.08-18.91,40.65-41.39,40.32C16.59,81.47-.7,61.9,.02,39,.63,19.78,16.81-.02,41.1,0ZM21.69,38.36c-4.1,6.21-8,12.41-12.25,18.38-1.67,2.35-1.34,3.93,.24,6.03,9.69,12.88,22.5,18.25,38.36,15.61,11.2-1.87,19.65-8.18,25.62-17.78,.42-.67,.56-2.01,.17-2.61-5.75-8.85-11.62-17.62-17.56-26.56-1.16,1.75-2.02,3.49-3.28,4.87-3.03,3.31-3,6.23-.06,9.75,2.84,3.4,5.05,7.33,7.41,11.1,.34,.55-.04,1.55-.09,2.34-.77-.25-1.58-.43-2.3-.78-.32-.16-.48-.65-.71-.99-4.86-7.28-9.71-14.56-14.57-21.83-.47-.71-.99-1.4-1.36-1.92-1.69,1.59-3.06,3.92-4.69,4.12-1.74,.22-3.73-1.58-5.61-2.49-2.79,3.3-5.9,4.22-9.32,2.75h0ZM6.23,56.26c.65-.93,1.14-1.59,1.58-2.27,7.72-11.72,15.44-23.45,23.17-35.17,1.68-2.54,2.4-2.55,4.05-.07,2.2,3.3,4.34,6.63,6.54,9.93,2.08,3.13,4.2,6.24,6.52,9.67,2.19-3.27,4.16-6.2,6.12-9.13,1.79-2.67,2.44-2.69,4.19-.04,5.39,8.12,10.75,16.25,16.13,24.38,.46,.69,.98,1.35,1.57,2.16,7.02-14.83,1.94-34.61-11.24-44.76C50.04-.47,30.11-.19,16.23,11.7,1.86,24-.14,43.08,6.23,56.26ZM33.07,21.15l-9.5,14.5,2.49,1.29c.96-1.29,1.87-2.36,2.61-3.54,1.05-1.69,2.21-2.03,3.85-.76,1.08,.84,2.3,1.51,3.57,2.32,.9-1.08,1.77-1.96,2.44-2.99,.34-.53,.64-1.5,.39-1.92-1.8-2.93-3.75-5.77-5.83-8.9h-.02Z"/><path class="e" d="M21.69,38.36c3.42,1.47,6.53,.55,9.32-2.75,1.88,.92,3.87,2.71,5.61,2.49,1.63-.2,3-2.53,4.69-4.12,.37,.52,.88,1.21,1.36,1.92,4.86,7.28,9.71,14.56,14.57,21.83,.23,.34,.39,.84,.71,.99,.72,.35,1.53,.53,2.3,.78,.05-.79,.44-1.79,.09-2.34-2.36-3.78-4.57-7.71-7.41-11.1-2.94-3.53-2.97-6.44,.06-9.75,1.26-1.38,2.12-3.12,3.28-4.87,5.94,8.94,11.8,17.71,17.56,26.56,.39,.6,.24,1.93-.17,2.61-5.97,9.6-14.42,15.91-25.62,17.78-15.85,2.64-28.67-2.73-38.36-15.61-1.58-2.09-1.9-3.68-.24-6.03,4.24-5.97,8.14-12.18,12.25-18.38h0Z"/><path class="c" d="M6.23,56.26C-.14,43.08,1.86,24,16.23,11.7,30.11-.19,50.04-.47,64.87,10.94c13.18,10.15,18.26,29.92,11.24,44.76-.59-.81-1.11-1.46-1.57-2.16-5.38-8.12-10.75-16.26-16.13-24.38-1.75-2.65-2.4-2.63-4.19,.04-1.96,2.93-3.93,5.86-6.12,9.13-2.32-3.43-4.44-6.54-6.52-9.67-2.2-3.3-4.34-6.63-6.54-9.93-1.65-2.48-2.38-2.47-4.05,.07-7.73,11.72-15.44,23.45-23.17,35.17-.45,.68-.93,1.34-1.58,2.27v.02Z"/><path class="b" d="M33.07,21.15c2.08,3.13,4.03,5.97,5.83,8.9,.26,.42-.04,1.4-.39,1.92-.66,1.02-1.54,1.91-2.44,2.99-1.26-.81-2.48-1.48-3.57-2.32-1.64-1.27-2.8-.93-3.85,.76-.74,1.18-1.65,2.25-2.61,3.54l-2.49-1.29,9.5-14.5h.02Z"/><g><path class="d" d="M117.06,35.97h-2.19c-.19-.39-.29-2.14-.34-5.45-1.22,2.33-3.89,5.83-10.99,5.83-9.77,0-14.78-7.44-14.78-17.11,0-10.16,5.35-17.79,15.31-17.79,7.34,0,12.2,3.84,13.27,10.11h-2.62c-1.46-4.81-4.81-7.68-10.74-7.68-8.51,0-12.4,6.61-12.4,15.22,0,7.78,3.74,14.83,12.06,14.83s10.89-5.54,10.89-13.08v-.39h-10.99v-2.43h13.51v17.94h.01Z"/><path class="d" d="M154.69,18.72c0,9.29-4.96,17.74-15.46,17.74-9.58,0-15.17-7.73-15.17-17.5s5.4-17.5,15.51-17.5c9.33,0,15.12,7.34,15.12,17.26h0Zm-27.81,.1c0,7.83,4.33,15.22,12.49,15.22,8.8,0,12.49-7.2,12.49-15.27s-4.18-14.88-12.4-14.88c-8.75,0-12.59,7.24-12.59,14.92h0Z"/><path class="d" d="M190.77,18.72c0,9.29-4.96,17.74-15.46,17.74-9.58,0-15.17-7.73-15.17-17.5s5.4-17.5,15.51-17.5c9.33,0,15.12,7.34,15.12,17.26h0Zm-27.81,.1c0,7.83,4.33,15.22,12.49,15.22,8.8,0,12.49-7.2,12.49-15.27s-4.18-14.88-12.4-14.88c-8.75,0-12.59,7.24-12.59,14.92h0Z"/><path class="d" d="M198.25,1.94h11.28c9.33,0,15.8,6.51,15.8,16.72s-6.32,17.31-15.85,17.31h-11.23V1.94Zm2.62,31.6h8.22c8.99,0,13.42-6.32,13.42-14.73,0-7.49-3.99-14.44-13.42-14.44h-8.22v29.17Z"/><path class="d" d="M90.41,44.34h5.01v13.92h16.84v-13.92h5.01v33.76h-5.01v-15.6h-16.84v15.6h-5.01V44.34Z"/><path class="d" d="M131.26,44.34v33.76h-5.01V44.34h5.01Z"/><path class="d" d="M140.24,44.34h4.97v16.28c2.46-2.6,10.72-10.92,15.85-16.28h6.17l-14.34,14.2,15.01,19.57h-6.06l-12.46-16.32-4.18,3.81v12.5h-4.97V44.34h0Z"/><path class="d" d="M193.66,62.56h-16.67v11.31h18.32l-.63,4.24h-22.59V44.34h22.36v4.24h-17.46v9.73h16.67v4.24h0Z"/><path class="d" d="M204.3,68.62c.89,3.92,3.59,5.98,8.3,5.98,5.01,0,7.01-2.29,7.01-5.35,0-3.27-1.66-5.03-8.24-6.61-8.19-1.98-10.86-4.82-10.86-9.53,0-5.18,3.83-9.25,11.46-9.25,8.22,0,11.57,4.68,12.03,9.21h-5.09c-.56-2.83-2.3-5.25-7.12-5.25-3.89,0-6.1,1.73-6.1,4.79s1.82,4.21,7.65,5.61c9.67,2.34,11.45,6.07,11.45,10.48,0,5.58-4.15,9.84-12.54,9.84s-12.33-4.56-13.05-9.93h5.1Z"/></g></svg>